<?xml version="1.0" encoding="utf-8"?>
<!-- Generator: Adobe Illustrator 27.5.0, SVG Export Plug-In . SVG Version: 6.00 Build 0)  -->
<svg version="1.1" xmlns="http://www.w3.org/2000/svg" xmlns:xlink="http://www.w3.org/1999/xlink" x="0px" y="0px"
	 viewBox="0 0 500 500" style="enable-background:new 0 0 500 500;" xml:space="preserve">
<g id="BACKGROUND">
	<rect style="" width="500" height="500"/>
</g>
<g id="OBJECTS">
	<circle style="fill:#EBF6FF;" cx="250" cy="250" r="204.749"/>
	<g>
		<g>
			<g>
				<path style="fill:#A0BFE7;" d="M363.668,221.171c-0.693-6.247-1.799-12.408-3.384-18.486
					c-4.371-16.758-11.983-31.989-21.828-46.151c-7.886-11.344-17.318-21.21-28.623-29.194
					c-28.554-20.16-60.335-30.669-95.279-31.534c-7.987-0.199-15.968,0.033-23.937,0.752c-6.105,0.55-12.179,1.297-18.227,2.296
					c-9.586,1.585-18.917,4.112-28.013,7.514c-5.09,1.906-9.92,4.344-14.43,7.392c-1.9,1.282-3.675,2.712-5.085,4.541
					c-1.255,1.629-1.977,3.348-2.141,5.177c-0.116,1.264,0.042,2.581,0.479,3.955c0.089,0.285,0.187,0.565,0.288,0.841
					c0.089,0.243,0.183,0.483,0.28,0.72c0.058,0.142,0.117,0.284,0.178,0.424c0.018,0.041,0.037,0.082,0.056,0.123
					c0.086,0.194,0.17,0.39,0.262,0.58c0.061,0.126,0.13,0.248,0.193,0.372c0.023,0.044,0.046,0.088,0.069,0.132
					c1.241,2.378,2.944,4.431,5.15,6.151c2.037,1.588,4.255,2.866,6.595,3.937c0.934,0.428,1.876,0.83,2.828,1.207
					c4.08,1.626,8.299,2.846,12.56,3.922c0.033,0.009,0.062,0.015,0.095,0.024c6.878,1.733,13.848,3.021,20.835,4.219
					c3.883,0.669,7.794,1.192,11.73,1.472c0.193,0.015,0.387,0.027,0.583,0.039c0,0,0.003-0.003,0.003,0
					c4.511,0.274,9.013,0.015,13.52-0.25c1.139-0.065,2.284-0.071,3.419-0.17c1.228-0.11,1.279-0.214,1.195-1.404
					c-0.167-2.313-0.856-4.469-1.891-6.53c-0.19-0.381-0.366-0.77-0.512-1.169c-0.086-0.232-0.027-0.494,0.176-0.648
					c0.264-0.202,0.55-0.125,0.779,0.083c0.642,0.583,1.115,1.302,1.496,2.07c2.206,4.463,2.682,9.078,1.07,13.824
					c-1.05,3.086-3.006,5.48-5.843,7.118c-0.431,0.247-0.984,0.717-1.371,0.107c-0.336-0.526,0.285-0.833,0.642-1.1
					c2.774-2.087,4.136-5.019,4.978-8.26c0.3-1.16,0.181-1.282-1.059-1.285c-3.946-0.006-7.895,0.021-11.84-0.015
					c-3.949-0.036-7.877-0.422-11.787-0.928c-0.36-0.048-0.717-0.095-1.077-0.143c-4.582-0.624-9.129-1.466-13.666-2.349
					c-3.128-0.61-6.247-1.249-9.346-1.971c-3.482-0.812-6.937-1.728-10.348-2.822c-0.345-0.107-0.687-0.22-1.029-0.333
					c-5.117-1.701-10.062-3.753-14.338-7.145c-0.175-0.14-0.354-0.333-0.708-0.155c-0.027,0.437,0.155,0.865,0.309,1.305
					c0.357,1.023,0.782,2.01,1.255,2.974c0.024,0.05,0.048,0.101,0.074,0.149c0.505,1.032,1.07,2.031,1.662,3.018
					c3.538,5.885,8.13,10.88,13.104,15.551c8.344,7.835,17.499,14.632,27.005,20.975c9.221,6.155,18.855,11.623,28.438,17.172
					c12.715,7.365,25.295,14.942,37.389,23.303c6.655,4.6,13.163,9.381,19.006,15.013c8.064,7.776,14.29,16.764,18.109,27.344
					c2.869,7.948,3.503,16.113,2.182,24.439c-1.035,6.521-3.506,12.515-6.845,18.165c-6.342,10.734-15.287,18.715-26.25,24.493
					c-5.12,2.7-10.407,4.99-15.792,7.035c-4.237,1.612-8.531,3.072-12.857,4.463c-3.22,1.038-6.244,2.563-9.111,4.35
					c-1.918,1.192-3.372,2.807-4.612,4.606c-0.669,0.972-1.276,1.998-1.858,3.042c-0.092,0.167-0.158,0.357-0.241,0.535
					c-0.119,0.247-0.273,0.476-0.595,0.609c-0.265-0.294-0.262-0.553-0.199-0.767c0.443-1.549,0.996-3.042,1.751-4.404
					c0.901-1.63,2.096-3.069,3.744-4.178c3.39-2.287,6.997-4.216,10.886-5.56c0.74-0.256,1.487-0.595,1.507-1.496
					c0.006-0.277-0.077-0.488-0.214-0.654c-0.259-0.321-0.714-0.488-1.109-0.669c-1.594-0.726-3.116-1.579-4.603-2.501
					c-0.452-0.28-0.904-0.565-1.35-0.856c-8.528-5.543-15.902-12.349-22.364-20.184c-7.915-9.592-14.927-19.815-21.403-30.419
					c-3.024-4.948-5.959-9.955-9.408-14.627c-0.818-1.106-1.659-2.191-2.578-3.205c-0.74-0.812-1.525-1.582-2.388-2.284
					c-1.038-0.844-2.147-1.561-3.458-1.93c-1.677-0.47-2.991-0.065-4.023,1.32c-0.723,0.969-1.109,2.087-1.392,3.253
					c-0.797,3.298-0.562,6.616-0.16,9.926c0.767,6.336,2.269,12.521,4.011,18.65c2.881,10.146,6.206,20.157,9.158,30.282
					c2.287,7.844,4.591,15.688,5.691,23.818c0.479,3.55,0.532,7.098-0.015,10.654c-0.678,4.377-2.298,8.415-4.329,12.313
					c-2.952,5.664-6.586,10.901-10.172,16.164c-4.151,6.09-8.32,12.167-11.811,18.673c-2.745,5.12-5.215,10.354-6.464,16.083
					c-1.166,5.358-0.722,10.479,2.114,15.281c1.478,2.507,3.402,3.039,6.015,1.68c1.317-0.687,2.456-1.585,3.515-2.581
					c0.461-0.434,0.907-0.886,1.344-1.344c5.709-5.992,11.192-12.185,16.625-18.43c6.277-7.214,12.682-14.308,19.681-20.838
					c6.137-5.727,12.679-10.934,20.062-14.983c3.098-1.701,6.265-3.25,9.536-4.549c2.194-0.877,4.433-1.635,6.732-2.254
					c0.467-0.125,1.1-0.137,1.184-0.836c0.08-0.66-0.309-1.085-0.812-1.392c-0.446-0.268-0.934-0.467-1.412-0.675
					c-3.782-1.641-7.273-3.726-10.178-6.696c-1.24-1.267-2.266-2.688-3.092-4.255c-0.384-0.723-0.633-1.487-0.77-2.286
					c-0.071-0.428-0.056-0.934,0.443-1.079c0.045-0.012,0.083-0.021,0.122-0.024c0.392-0.036,0.494,0.399,0.615,0.708
					c1.065,2.673,2.843,4.811,4.993,6.669c1.082,0.934,2.248,1.754,3.467,2.501c4.059,2.48,8.501,3.999,13.074,5.153
					c5.263,1.329,10.615,2.046,16.039,2.379c4.811,0.297,9.604,0.211,14.395-0.155c4.642-0.357,9.247-1.026,13.821-1.909
					c9.352-1.808,18.495-4.309,27.291-7.996c7.178-3.006,13.88-6.86,20.169-11.436c1.065-0.776,1.065-0.821,0.529-1.977
					c-2.637-5.718-3.687-11.769-3.678-18.013c0.003-3.423,0.324-6.833,0.874-10.217c0.461-2.822,1.124-5.587,2.385-8.18
					c0.559-1.151,1.323-1.401,2.194-0.535c2.92,2.893,6.417,4.882,10.113,6.562c4.591,2.09,9.42,3.208,14.445,3.568
					c1.326,0.092,2.281-0.241,2.979-1.412c0.732-1.219,1.621-2.349,2.355-3.568c3.729-6.217,6.747-12.777,9.099-19.628
					c3.58-10.446,6.158-21.15,8.04-32.033c1.573-9.096,2.641-18.245,2.988-27.466C364.607,234.923,364.432,228.039,363.668,221.171z
					 M188.67,135.445c-4.05,0.58-7.755-0.175-11.061-2.602c-2.263-1.659-3.833-3.865-4.677-6.277
					c-1.335-3.809-0.865-8.141,1.522-11.677c0.404-0.598,0.862-1.172,1.374-1.716c6.613-7.029,18.257-5.819,22.991,2.391
					c1.139,1.977,1.686,4.115,1.683,6.396c0,0.053,0,0.107-0.003,0.16c-0.068,5.314-3.437,10.11-8.189,12.26
					C191.167,134.898,189.945,135.264,188.67,135.445z M265.151,220.059c-3.437-1.076-6.53-2.828-9.444-4.915
					c-3.184-2.284-6.021-4.954-8.662-7.835c-4.16-4.531-7.841-9.429-11.109-14.638c-2.102-3.348-3.987-6.803-5.123-10.624
					c-0.336-1.133-0.517-1.166-1.391-0.339c-3.408,3.22-7.145,5.968-11.368,8.04c-4.612,2.26-9.491,3.583-14.564,4.243
					c-0.056,0.009-0.116,0.018-0.172,0.027c-0.265,0.048-0.544,0.092-0.844-0.169c0.065-0.074,0.134-0.134,0.208-0.184
					c0.36-0.253,0.809-0.274,1.195-0.378c3.874-1.02,7.562-2.515,11.204-4.169c7.041-3.199,12.741-8.034,17.517-14.05
					c5.207-6.56,8.251-14.064,9.691-22.248c0.529-3.003,0.827-6.018,0.907-9.042c0.077-2.852-0.039-5.712-0.339-8.576
					c-0.211-2.028-0.705-3.996-1.24-5.959c-0.178-0.651-0.36-1.302-0.538-1.956c-1.198-4.392-3.22-8.421-5.421-12.37
					c-0.137-0.247-0.273-0.491-0.574-1.023c0.981,0.271,1.293,0.821,1.656,1.293c2.298,3.018,3.842,6.435,5.165,9.964
					c0.526,1.403,0.984,2.813,1.377,4.234c1.35,4.877,1.93,9.857,1.885,14.906c-0.012,1.561-0.083,3.131-0.211,4.707
					c-0.294,3.648-1.032,7.237-2.093,10.752c-0.158,0.52-0.476,1.041-0.336,1.609c0.479,0.259,0.788-0.051,1.1-0.208
					c7.243-3.669,14.888-5.986,22.792-7.478c1.442-0.274,2.896-0.52,4.356-0.74c5.29-0.8,10.6-1.044,15.926-0.758
					c0.883,0.048,1.76,0.113,2.634,0.202c3.993,0.401,7.901,1.267,11.653,2.834c2.073,0.865,4.014,1.957,5.789,3.33
					c5.388,4.166,7.606,10.095,6.268,16.47c-0.155,0.738-0.36,1.481-0.61,2.23c-0.934,2.789-2.489,5.224-4.228,7.556
					c-1.623,2.177-3.416,4.21-5.23,6.22c-0.065,0.072-0.128,0.143-0.193,0.214c-3.782,4.19-6.97,8.781-9.554,13.797
					c-1.133,2.197-2.302,4.377-3.652,6.452c-2.896,4.454-6.663,7.776-11.93,9.137C273.426,221.712,269.26,221.349,265.151,220.059z"
					/>
				<path style="fill:#88ADE0;" d="M142.414,145.421c0.342,0.113,0.684,0.226,1.029,0.333c-4.883-0.419-10.22-1.094-14.436-3.205
					c-0.027-0.048-0.051-0.098-0.074-0.149c-0.473-0.964-0.898-1.951-1.255-2.974c-0.155-0.44-0.336-0.868-0.309-1.305
					c0.354-0.178,0.532,0.015,0.708,0.155C132.352,141.669,137.297,143.72,142.414,145.421z"/>
				<path style="fill:#88ADE0;" d="M124.457,130.492c0.023,0.044,0.046,0.088,0.069,0.132
					C124.503,130.58,124.48,130.536,124.457,130.492z"/>
				<path style="fill:#88ADE0;" d="M124.002,129.54c0.144,0.323,0.295,0.64,0.455,0.952c-0.064-0.125-0.132-0.246-0.193-0.372
					C124.172,129.93,124.088,129.734,124.002,129.54z"/>
				<path style="fill:#88ADE0;" d="M123.946,129.417c0.018,0.041,0.037,0.082,0.056,0.123
					C123.984,129.499,123.964,129.458,123.946,129.417z"/>
				<path style="fill:#88ADE0;" d="M123.488,128.273c0.088,0.244,0.184,0.482,0.28,0.72
					C123.671,128.756,123.577,128.516,123.488,128.273z"/>
				<path style="fill:#88ADE0;" d="M123.768,128.993c0.058,0.142,0.117,0.284,0.178,0.424
					C123.885,129.277,123.826,129.135,123.768,128.993z"/>
				<path style="fill:#88ADE0;" d="M324.834,249.561c-0.458,14.677,6.985,30.591-0.387,43.294
					c-3.164,5.45-8.596,9.191-12.417,14.207c-9.322,12.224-8.816,31.43-21.585,39.993c-8.614,5.775-20.125,4.306-29.901,7.773
					c-4.746,1.68-8.995,4.502-13.562,6.622c-18.195,8.451-41.459,4.377-55.702-9.756c-1.838,6.307,0.467,13.288,4.639,18.361
					c1.029,1.252,2.159,2.403,3.363,3.47c-1.207-0.868-2.352-1.829-3.422-2.896c-7.416-7.383-7.556-20.478,0.134-27.576
					c-0.473,3.164,0.969,6.191,3.3,8.439c0.36,0.348,0.743,0.675,1.142,0.984c1.285,0.99,2.747,1.76,4.264,2.233
					c5.043,1.576,10.484,0.699,15.694-0.193c9.447-1.618,18.893-3.232,28.34-4.85c3.988-0.681,8.04-1.386,11.65-3.208
					c4.38-2.212,7.808-5.923,11.942-8.566c6.075-3.889,13.663-5.486,18.754-10.598c6.943-6.973,7.035-18.004,10.374-27.258
					c3.402-9.426,10.446-17.472,12.275-27.323c2.15-11.591-3.312-23.154-4.172-34.909c-1.05-14.421,4.555-30.368-3.208-42.568
					c-0.975-1.534-2.12-2.923-3.372-4.219c-4.606-4.784-10.651-8.335-15.001-13.44c-2.649-3.107-4.615-6.729-6.982-10.053
					c-3.946-5.543-8.932-10.134-14.576-13.85c-6.426-4.231-13.702-7.324-21.251-9.381c-0.654-0.178-1.311-0.351-1.971-0.514
					c-3.048-0.752-6.131-1.341-9.212-1.772c-10.309-1.439-20.865-1.338-30.939-3.949c-3.669-0.951-7.223-2.251-10.734-3.675
					c-5.037-2.049-9.985-4.359-15.067-6.298c-1.415-0.541-2.855-1.05-4.311-1.517c-7.41-2.376-15.257-3.619-22.741-1.754
					c-5.266,1.311-10.511,4.612-12.081,9.809c-0.723,2.402-0.256,5.12,0.99,7.297c-0.951-0.378-1.894-0.779-2.828-1.207
					c-2.34-1.07-4.558-2.349-6.595-3.937c-2.205-1.719-3.909-3.772-5.15-6.151c0.368,0.703,0.776,1.378,1.225,2.024
					c0.19-0.473,0.404-0.931,0.645-1.374c0.333-0.931,0.752-1.841,1.252-2.73c1.249-2.221,3.054-3.904,5.126-5.215
					c0.116-0.098,0.232-0.196,0.351-0.291c11.742-9.456,27.062-9.7,41.328-8.147c3.25,0.354,6.482,1.005,9.61,1.838
					c5.569,1.484,10.984,3.503,16.434,5.394c4.136,1.433,8.293,2.795,12.554,3.788c9.349,2.18,18.983,2.551,28.563,3.333
					c0.556,0.048,1.112,0.095,1.665,0.143c3.125,0.274,6.238,0.607,9.337,1.071c13.137,1.977,26.77,7.038,34.311,17.978
					c0.874,1.267,1.653,2.596,2.405,3.943c1.713,3.072,3.277,6.238,5.471,8.977c4.775,5.953,11.974,9.247,18.239,13.657
					c1.329,0.934,2.617,1.921,3.83,2.991c13.303,11.742,15.593,31.95,12.069,49.342
					C327.445,234.736,325.069,242.021,324.834,249.561z"/>
				<path style="fill:#5584D2;" d="M364.346,241.818c-0.348,9.221-1.415,18.37-2.988,27.466c-1.882,10.883-4.46,21.587-8.04,32.033
					c-2.352,6.851-5.37,13.41-9.099,19.628c-0.734,1.219-1.624,2.349-2.355,3.568c-0.699,1.172-1.653,1.505-2.979,1.412
					c-4.246-0.303-8.35-1.148-12.289-2.667c-0.726-0.274-1.442-0.577-2.156-0.901c-3.696-1.68-7.193-3.669-10.113-6.562
					c-0.871-0.865-1.635-0.616-2.194,0.535c-1.261,2.593-1.924,5.358-2.385,8.18c-0.55,3.384-0.871,6.794-0.874,10.217
					c-0.006,3.916,0.404,7.755,1.365,11.484c0.568,2.218,1.329,4.398,2.313,6.53c0.535,1.157,0.535,1.201-0.529,1.977
					c-6.289,4.576-12.991,8.43-20.169,11.436c-6.256,2.623-12.685,4.645-19.245,6.241c-2.661,0.651-5.343,1.231-8.046,1.754
					c-4.573,0.883-9.179,1.552-13.821,1.909c-4.79,0.366-9.584,0.452-14.395,0.155c-5.424-0.333-10.776-1.05-16.039-2.379
					c-4.573-1.154-9.016-2.673-13.074-5.153c-1.219-0.746-2.385-1.567-3.467-2.501c-2.15-1.858-3.928-3.996-4.993-6.669
					c-0.122-0.309-0.223-0.743-0.615-0.708c-0.039,0.003-0.077,0.012-0.122,0.024c-0.499,0.146-0.514,0.651-0.443,1.079
					c0.137,0.8,0.387,1.564,0.77,2.286c0.827,1.567,1.852,2.988,3.092,4.255c2.905,2.97,6.396,5.055,10.178,6.696
					c0.479,0.208,0.966,0.407,1.412,0.675c0.503,0.306,0.892,0.732,0.812,1.392c-0.083,0.699-0.717,0.711-1.184,0.836
					c-1.802,0.485-3.568,1.056-5.305,1.701c-0.479,0.178-0.954,0.363-1.427,0.553c-2.367-1.401-4.624-2.968-6.661-4.776
					c-1.204-1.067-2.334-2.218-3.363-3.47c-4.172-5.073-6.476-12.055-4.639-18.361c14.243,14.133,37.508,18.207,55.702,9.756
					c4.567-2.12,8.816-4.942,13.562-6.622c9.777-3.467,21.287-1.998,29.901-7.773c12.768-8.564,12.263-27.769,21.585-39.993
					c3.821-5.016,9.253-8.757,12.417-14.207c7.371-12.703-0.071-28.617,0.387-43.294c0.235-7.541,2.611-14.826,4.109-22.218
					c3.524-17.392,1.234-37.6-12.069-49.342c-1.213-1.07-2.501-2.058-3.83-2.991c-6.265-4.41-13.464-7.704-18.239-13.657
					c-2.195-2.739-3.758-5.905-5.471-8.977c-0.752-1.347-1.531-2.676-2.405-3.943c-7.541-10.939-21.174-16-34.311-17.978
					c-3.098-0.464-6.212-0.797-9.337-1.071c-0.553-0.047-1.109-0.095-1.665-0.143c-9.581-0.782-19.215-1.154-28.563-3.333
					c-4.261-0.993-8.418-2.355-12.554-3.788c-5.45-1.891-10.865-3.91-16.434-5.394c-3.128-0.833-6.36-1.484-9.61-1.838
					c-14.267-1.552-29.586-1.308-41.328,8.147c-0.119,0.095-0.235,0.193-0.351,0.291c-2.072,1.311-3.877,2.994-5.126,5.215
					c-0.5,0.889-0.919,1.799-1.252,2.73c-0.241,0.443-0.455,0.901-0.645,1.374c-1.091-1.57-1.945-3.304-2.551-5.215
					c-0.437-1.374-0.595-2.691-0.479-3.955c0.163-1.829,0.886-3.547,2.141-5.177c1.41-1.829,3.185-3.259,5.085-4.541
					c4.511-3.048,9.34-5.486,14.43-7.392c9.096-3.402,18.427-5.929,28.013-7.514c6.048-0.999,12.123-1.745,18.227-2.296
					c7.969-0.719,15.95-0.951,23.937-0.752c34.944,0.865,66.725,11.374,95.279,31.534c11.305,7.984,20.737,17.85,28.623,29.194
					c9.845,14.163,17.457,29.393,21.828,46.151c1.585,6.078,2.691,12.239,3.384,18.486
					C364.432,228.039,364.607,234.923,364.346,241.818z"/>
				<path style="fill:#3F6DB2;" d="M372.669,346.53c-1.481,4.612-3.452,8.932-5.929,12.947c-0.196,0.318-0.395,0.633-0.598,0.949
					c-2.239,3.479-4.874,6.72-7.912,9.705c-1.222,1.201-2.542,2.29-3.973,3.241c-4.433,2.953-9.179,3.666-14.276,2.043
					c-4.362-1.392-8.242-3.651-11.814-6.467c-7.811-6.155-13.336-13.868-15.914-23.556c-0.057-0.217-0.113-0.434-0.164-0.651
					c-0.098-0.393-0.184-0.785-0.265-1.177c-0.101-0.482-0.19-0.963-0.268-1.448c-0.03-0.169-0.057-0.342-0.08-0.514
					c-0.042-0.271-0.08-0.544-0.116-0.818c-0.033-0.25-0.062-0.5-0.089-0.752c-0.015-0.146-0.033-0.294-0.045-0.44
					c-0.018-0.146-0.03-0.294-0.044-0.443c-0.012-0.131-0.024-0.262-0.033-0.392c-0.003-0.012-0.003-0.027-0.003-0.039
					c-0.024-0.265-0.042-0.532-0.059-0.8c-0.015-0.232-0.03-0.467-0.042-0.702c-0.045-0.871-0.071-1.754-0.08-2.652
					c0.009-0.309,0.021-0.618,0.033-0.928c0.009-0.247,0.018-0.494,0.03-0.743c0.006-0.143,0.015-0.288,0.024-0.431
					c0.012-0.232,0.024-0.464,0.039-0.696c0.015-0.235,0.03-0.47,0.047-0.708c0.012-0.214,0.03-0.431,0.048-0.648
					c0.015-0.223,0.036-0.449,0.056-0.675c0.018-0.205,0.036-0.407,0.057-0.612c0.036-0.381,0.077-0.764,0.122-1.145
					c0.036-0.312,0.074-0.627,0.113-0.94c0.003-0.006,0.003-0.009,0.003-0.015c0.006-0.056,0.012-0.11,0.021-0.164
					c0.024-0.196,0.051-0.39,0.08-0.583c0.015-0.113,0.033-0.229,0.051-0.342c0.042-0.271,0.083-0.544,0.128-0.815
					c0.045-0.271,0.089-0.544,0.14-0.815c0.039-0.229,0.083-0.458,0.128-0.687c0.03-0.158,0.063-0.318,0.095-0.476
					c0.03-0.155,0.063-0.309,0.095-0.464c0.045-0.208,0.089-0.413,0.14-0.621c0.018-0.086,0.039-0.175,0.06-0.262
					c0.051-0.229,0.107-0.455,0.164-0.684c0.208-0.833,0.479-1.641,0.847-2.414c0.018-0.036,0.033-0.071,0.051-0.104
					c0.042-0.086,0.08-0.167,0.119-0.238c0.009-0.018,0.018-0.036,0.03-0.054c0.021-0.045,0.045-0.083,0.065-0.119
					c0.051-0.086,0.098-0.155,0.149-0.205c0.012-0.015,0.024-0.027,0.036-0.036c0.012-0.012,0.024-0.021,0.036-0.03
					c0.024-0.018,0.048-0.03,0.074-0.039c0.024-0.009,0.05-0.012,0.077-0.012c0.021,0,0.045,0.003,0.065,0.009
					c0.024,0.006,0.048,0.012,0.074,0.024c0.009,0.003,0.021,0.009,0.033,0.015c0,0.003,0,0.003,0,0.003
					c0.018,0.009,0.036,0.018,0.056,0.03c0.033,0.021,0.071,0.048,0.11,0.074c0.068,0.051,0.146,0.113,0.229,0.19
					c0.027,0.024,0.054,0.048,0.083,0.074c0.03,0.024,0.059,0.053,0.089,0.08c3.408,3.143,7.398,5.326,11.689,6.964
					c0.776,0.297,1.558,0.568,2.343,0.815c5.171,1.635,10.499,2.2,15.982,1.722c1.493-0.131,2.977-0.315,4.46-0.511
					c2.423-0.321,4.841-0.675,7.279-0.88c3.268-0.277,6.553-0.449,9.777,0.431c4.315,1.181,6.839,3.654,7.478,8.947
					C374.313,339.5,373.784,343.065,372.669,346.53z"/>
				<path style="fill:#3F6DB2;" d="M292.212,369.848c-0.134,0.247-0.339,0.461-0.535,0.663c-2.819,2.923-5.287,6.078-7.493,9.402
					c-1.088,1.635-2.114,3.313-3.086,5.025c-1.457,2.56-2.792,5.198-4.05,7.892c-1.525,3.271-3.039,6.554-4.832,9.694
					c-1.085,1.903-2.278,3.732-3.874,5.263c-1.933,1.849-4.148,3.14-6.833,3.574c-2.049,0.333-3.976-0.116-5.858-0.812
					c-3.003-1.115-5.462-3.069-7.689-5.302c-1.059-1.065-2.037-2.168-2.932-3.313c-0.636-0.812-1.228-1.641-1.781-2.492
					c-2.941-4.529-4.725-9.622-5.421-15.239c-0.193-1.564-0.259-3.116-0.08-4.689c0.086-0.767,0.425-1.05,1.195-1.02
					c1.282,0.048,2.566,0.012,3.851,0.012c5.977-0.03,11.897-0.559,17.772-1.478c1.392-0.217,2.78-0.458,4.169-0.72
					c1.121-0.208,2.242-0.431,3.36-0.669c0.089-0.018,0.178-0.039,0.268-0.056c1.285-0.274,2.563-0.562,3.836-0.868
					c0.845-0.196,1.683-0.404,2.522-0.621c2.316-0.589,4.615-1.231,6.896-1.936c2.89-0.889,5.754-1.876,8.585-2.97
					c0.44-0.169,0.877-0.375,1.371-0.366C292.254,368.836,292.533,369.259,292.212,369.848z"/>
				<path style="fill:#3F6DB2;" d="M271.573,297.244c-0.155,0.431-0.315,0.859-0.482,1.284c-0.696,1.769-1.487,3.488-2.373,5.168
					c-0.315,0.609-0.645,1.21-0.987,1.808c-0.184,0.321-0.47,0.604-0.764,0.833c-5.706,4.457-11.876,8.04-18.896,10.018
					c-1.466,0.41-2.95,0.758-4.454,0.946c-0.52,0.062-1.044,0.14-1.546,0.205c-0.767,0.098-1.496,0.169-2.12,0.122
					c-4.297-0.074-7.939-1.047-10.925-2.977c-3.057-1.968-5.424-4.942-7.098-8.977c-1.395-3.363-2.076-6.886-2.376-10.517
					c-0.333-4.014-0.077-7.966,0.782-11.873c0.051-0.238,0.107-0.479,0.163-0.717c0.479-1.998,1.213-3.907,2.325-5.644
					c0.785-1.225,1.701-2.266,2.789-3.066c1.103-0.806,2.385-1.359,3.889-1.597c1.567-0.247,3.018,0.134,4.445,0.693
					c1.93,0.761,3.547,2.01,5.097,3.351c2.162,1.873,4.077,3.993,6.033,6.069c2.542,2.703,5.195,5.293,8.064,7.654
					c2.545,2.093,5.272,3.904,8.287,5.248c3.009,1.344,6.096,2.111,9.405,1.192C271.63,296.248,271.847,296.486,271.573,297.244z"/>
				<path style="fill:#3F6DB2;" d="M310.633,175.807c-0.702,2.45-1.945,4.633-3.41,6.699c-1.338,1.888-2.813,3.672-4.353,5.391
					c-0.265,0.297-0.532,0.592-0.803,0.886c-4.24,4.615-7.829,9.664-10.743,15.197c-0.181,0.339-0.357,0.681-0.532,1.026
					c-0.11,0.217-0.22,0.434-0.333,0.648c-1.02,1.977-2.129,3.913-3.423,5.736c-2.724,3.839-6.286,6.432-10.954,7.368
					c-1.163,0.235-2.343,0.384-3.536,0.39c-3.47-0.089-6.756-0.94-9.896-2.4c-3.437-1.594-6.5-3.749-9.316-6.259
					c-6.779-6.051-12.066-13.277-16.434-21.192c-1.757-3.179-2.73-6.669-3.538-10.199c-0.193-0.836-0.066-1.528,0.523-2.233
					c0.17-0.205,0.336-0.41,0.503-0.615c0.173-0.214,0.342-0.428,0.509-0.645c0.592-0.77,1.16-1.555,1.698-2.355
					c0.503-0.743,0.981-1.502,1.43-2.275c0.702-1.186,1.341-2.406,1.927-3.663c0.11-0.232,0.217-0.467,0.321-0.702
					c0.241-0.538,0.568-0.969,0.978-1.329c0.181-0.167,0.378-0.315,0.592-0.455c3.61-2.349,7.579-3.934,11.594-5.412
					c5.923-2.177,12.013-3.705,18.278-4.505c0.021-0.003,0.045-0.006,0.065-0.009c2.031-0.256,4.065-0.455,6.102-0.58
					c2.988-0.182,5.983-0.202,8.977-0.009c1.844,0.119,3.672,0.324,5.474,0.642c3.042,0.532,6.009,1.392,8.864,2.724
					c2.081,0.969,4.014,2.171,5.661,3.779C310.978,165.483,312.215,170.279,310.633,175.807z"/>
				<path style="fill:#3F6DB2;" d="M377.221,231.75c-0.152,2.97-0.389,5.917-0.717,8.837c-1.936,17.329-7.012,33.764-16.051,49.042
					c-0.241,0.407-0.505,0.806-0.782,1.189c-0.107,0.155-0.28,0.25-0.497,0.17c-0.214-0.08-0.271-0.277-0.256-0.455
					c0.027-0.283,0.104-0.559,0.179-0.833c0.098-0.369,0.193-0.737,0.285-1.106c1.82-7.038,3.333-14.145,4.472-21.329
					c0.431-2.721,0.827-5.447,1.172-8.18c0.057-0.455,0.113-0.91,0.169-1.365c0.226-1.903,0.428-3.809,0.595-5.718
					c0.476-5.409,0.758-10.826,0.767-16.256v-0.83c-0.003-0.497-0.006-0.993-0.015-1.49c-0.095-6.714-0.678-13.312-1.746-19.797
					c-0.122-0.755-0.253-1.51-0.389-2.263c-1.216-6.646-2.947-13.17-5.189-19.568c-0.265-0.749-0.532-1.496-0.812-2.239
					c-1.603-4.329-3.446-8.602-5.528-12.819c-0.366-0.738-0.735-1.475-1.109-2.206c-0.416-0.818-0.842-1.633-1.27-2.441
					c-2.492-4.695-5.189-9.253-8.124-13.66c-0.44-0.66-0.883-1.317-1.335-1.968c-3.072-4.457-6.396-8.748-10-12.851
					c-0.131-0.149-0.262-0.297-0.396-0.446c-0.69-0.779-1.389-1.546-2.099-2.301c-3.321-3.541-6.842-6.839-10.541-9.92
					c-0.925-0.773-1.861-1.531-2.81-2.278c-3.286-2.584-6.705-5.013-10.238-7.3c-1.112-0.722-2.233-1.427-3.366-2.12
					c-0.39-0.238-0.782-0.476-1.174-0.711c-4.71-2.834-9.518-5.447-14.43-7.826c-2.997-1.451-6.03-2.816-9.108-4.086
					c-4.903-2.031-9.914-3.83-15.034-5.385c-0.044-0.015-0.089-0.033-0.134-0.054c-0.464-0.199-1.234-0.131-1.317-0.669
					c-0.113-0.702,0.642-0.99,1.16-1.287c2.581-1.484,5.382-2.361,8.299-2.884c7.184-1.282,14.433-1.68,22.426-1.698
					c0.291,0.012,0.589,0.021,0.886,0.03c4.401,0.155,9.381,0.306,14.353,0.723c4.121,0.345,8.219,0.797,12.301,1.472
					c0.33,0.054,0.651,0.119,0.963,0.193c3.625,0.845,5.98,2.941,7.065,6.803c1.389,4.939,3.113,9.777,5.361,14.409
					c2.971,6.128,6.465,11.956,10.056,17.728c5.126,8.231,10.493,16.313,15.349,24.713c5.557,9.613,10.386,19.554,13.663,30.196
					c2.004,6.509,3.414,13.137,4.216,19.907C377.319,217.781,377.578,224.766,377.221,231.75z"/>
				<path style="fill:#3F6DB2;" d="M215.431,340.259c-0.021,0.901-0.767,1.24-1.507,1.496c-3.889,1.344-7.496,3.274-10.886,5.56
					c-3.024,2.037-4.517,5.174-5.495,8.581c-0.063,0.214-0.066,0.473,0.199,0.767c0.321-0.134,0.476-0.363,0.595-0.609
					c-0.181,0.916-0.247,1.841-0.178,2.75c-0.039,0.003-0.077,0.012-0.122,0.024c-0.499,0.146-0.514,0.651-0.443,1.079
					c0.137,0.8,0.387,1.564,0.77,2.286c0.827,1.567,1.852,2.988,3.092,4.255c2.905,2.97,6.396,5.055,10.178,6.696
					c0.479,0.208,0.966,0.407,1.412,0.675c0.503,0.306,0.892,0.732,0.812,1.392c-0.083,0.699-0.717,0.711-1.184,0.836
					c-5.73,1.54-11.094,3.964-16.268,6.803c-7.383,4.05-13.925,9.256-20.062,14.983c-5.028,4.689-9.75,9.673-14.335,14.781
					c-1.799,2.004-3.577,4.026-5.346,6.057c-5.433,6.244-10.916,12.438-16.625,18.43c-0.437,0.458-0.883,0.91-1.344,1.344
					c-1.059,0.996-2.197,1.894-3.515,2.581c-2.614,1.359-4.538,0.827-6.015-1.68c-2.837-4.802-3.28-9.923-2.114-15.281
					c1.249-5.73,3.72-10.963,6.464-16.083c3.491-6.506,7.66-12.584,11.811-18.673c3.586-5.263,7.22-10.499,10.172-16.164
					c2.031-3.898,3.652-7.936,4.329-12.313c0.547-3.556,0.494-7.104,0.015-10.654c-1.1-8.13-3.405-15.974-5.691-23.818
					c-2.953-10.125-6.277-20.136-9.158-30.282c-1.743-6.128-3.244-12.313-4.011-18.65c-0.402-3.31-0.636-6.628,0.16-9.926
					c0.283-1.165,0.669-2.284,1.392-3.253c1.032-1.386,2.346-1.79,4.023-1.32c1.311,0.369,2.421,1.085,3.458,1.93
					c0.862,0.702,1.647,1.472,2.388,2.284c0.919,1.014,1.76,2.099,2.578,3.205c3.449,4.671,6.384,9.679,9.408,14.627
					c3.072,5.031,6.265,9.976,9.622,14.805c3.711,5.355,7.621,10.571,11.781,15.614c6.461,7.835,13.836,14.641,22.364,20.184
					c1.915,1.246,3.871,2.409,5.953,3.357C214.711,339.212,215.452,339.456,215.431,340.259z"/>
				<path style="fill:#385DAF;" d="M369.451,249.663c0.063,3.211,0.77,6.414,0.473,9.613c-0.265,2.831-1.302,5.525-2.331,8.174
					c-2.736,7.047-5.471,14.097-8.21,21.145c1.82-7.038,3.333-14.145,4.472-21.329c0.8-5.067,1.487-10.148,1.936-15.263
					c0.499-5.685,0.788-11.38,0.767-17.086c-0.074-20.449-4.63-39.851-13.678-58.176c-5.897-11.945-13.024-23.095-21.837-33.128
					c-8.516-9.697-18.468-17.651-29.449-24.365c-12.506-7.645-25.709-13.746-39.747-18.007c-0.044-0.015-0.089-0.033-0.134-0.054
					c-0.464-0.199-1.234-0.131-1.317-0.669c-0.113-0.702,0.642-0.99,1.16-1.287c2.581-1.484,5.382-2.361,8.299-2.884
					c7.184-1.282,14.433-1.68,22.426-1.698c0.291,0.012,0.589,0.021,0.886,0.03c2.875,1.745,5.376,4.023,7.184,6.863
					c3.161,4.96,3.99,11.192,7.472,15.932c5.522,7.514,16.054,9.301,23.053,15.456c6.892,6.057,9.518,15.489,14.24,23.357
					c6.423,10.704,17.166,19.226,19.83,31.421c1.546,7.065,0.152,14.695,2.762,21.436c1.317,3.402,3.595,6.387,4.749,9.845
					C375.74,228.842,369.249,239.276,369.451,249.663z"/>
				<path style="fill:#385DAF;" d="M271.573,297.244c-0.155,0.431-0.315,0.859-0.482,1.284c-0.696,1.769-1.487,3.488-2.373,5.168
					c-0.315,0.609-0.645,1.21-0.987,1.808c-0.184,0.321-0.47,0.604-0.764,0.833c-5.706,4.457-11.876,8.04-18.896,10.018
					c-1.466,0.41-2.95,0.758-4.454,0.946c-0.52,0.062-1.044,0.14-1.546,0.205c-0.767,0.098-1.496,0.169-2.12,0.122
					c-4.297-0.074-7.939-1.047-10.925-2.977c1.612-0.018,3.214-0.083,4.811-0.211c3.598-0.288,7.148-0.892,10.609-1.98
					c1.945-0.61,3.875-1.395,5.54-2.548c0.607-0.416,1.174-0.886,1.698-1.409c0.574-0.577,1.082-1.237,1.499-1.948
					c0.381-0.654,0.681-1.353,0.877-2.076c0.288-1.038,0.366-2.123,0.164-3.179c-0.024-0.128-0.051-0.253-0.083-0.378
					c-0.342-1.341-1.047-2.435-1.971-3.372c-2.352-2.379-6.14-3.756-9.087-5.688c-1.267-0.83-2.403-1.805-3.455-2.872
					c-3.372-3.402-5.905-7.728-9.179-11.293c-1.451-1.579-3.072-2.857-4.835-3.839c1.103-0.806,2.385-1.359,3.889-1.597
					c1.567-0.247,3.018,0.134,4.445,0.693c1.93,0.761,3.547,2.01,5.097,3.351c2.162,1.873,4.077,3.993,6.033,6.069
					c2.542,2.703,5.195,5.293,8.064,7.654c2.545,2.093,5.272,3.904,8.287,5.248c3.009,1.344,6.096,2.111,9.405,1.192
					C271.63,296.248,271.847,296.486,271.573,297.244z"/>
				<path style="fill:#385DAF;" d="M292.212,369.848c-0.134,0.247-0.339,0.461-0.535,0.663c-2.819,2.923-5.287,6.078-7.493,9.402
					c-1.597,0.41-3.223,0.725-4.841,1.011c-0.437,0.077-0.877,0.152-1.32,0.226c-1.665,0.279-3.357,0.541-5.055,0.821
					c-1.537,0.253-3.077,0.517-4.612,0.821c-1.852,0.363-3.693,0.779-5.498,1.29c-3.776,1.07-7.398,2.551-10.63,4.82
					c-3.425,2.405-6.033,6.934-8.98,10.541c-2.941-4.529-4.725-9.622-5.421-15.239c-0.193-1.564-0.259-3.116-0.08-4.689
					c0.086-0.767,0.425-1.05,1.195-1.02c1.282,0.048,2.566,0.012,3.851,0.012c5.977-0.03,11.897-0.559,17.772-1.478
					c1.392-0.217,2.78-0.458,4.169-0.72c1.121-0.208,2.242-0.431,3.36-0.669c0.089-0.018,0.178-0.039,0.268-0.056
					c1.285-0.274,2.563-0.562,3.836-0.868c0.845-0.196,1.683-0.404,2.522-0.621c2.316-0.589,4.615-1.231,6.896-1.936
					c2.89-0.889,5.754-1.876,8.585-2.97c0.44-0.169,0.877-0.375,1.371-0.366C292.254,368.836,292.533,369.259,292.212,369.848z"/>
				<path style="fill:#385DAF;" d="M366.142,360.425c-2.239,3.479-4.874,6.72-7.912,9.705c-1.222,1.201-2.542,2.29-3.973,3.241
					c-4.433,2.953-9.179,3.666-14.276,2.043c-4.362-1.392-8.242-3.651-11.814-6.467c-7.811-6.155-13.336-13.868-15.914-23.556
					c-0.919-3.464-1.246-7.008-1.288-10.829c0.128-4.374,0.55-8.956,1.671-13.452c0.208-0.833,0.479-1.641,0.847-2.414
					c0.491-1.029,0.586-1.064,1.377-0.336c3.408,3.143,7.398,5.326,11.689,6.964c0.776,0.297,1.558,0.568,2.343,0.815
					c-1.82,0.624-3.428,1.537-4.591,3.125c-1.246,1.704-1.662,3.871-1.808,5.977c-1.035,14.906,11.724,29.375,26.642,30.211
					C355.187,365.789,361.176,363.829,366.142,360.425z"/>
				<path style="fill:#4A7FC3;" d="M135.73,412.246c-2.477,6.006-3.631,12.845-1.603,19.018c0.886,2.703,2.495,5.215,4.567,7.181
					c-1.059,0.996-2.197,1.894-3.515,2.581c-2.614,1.359-4.538,0.827-6.015-1.68c-2.837-4.802-3.28-9.923-2.114-15.281
					c1.249-5.73,3.72-10.963,6.464-16.083c3.491-6.506,7.66-12.584,11.811-18.673c3.586-5.263,7.22-10.499,10.172-16.164
					c2.031-3.898,3.652-7.936,4.329-12.313c0.547-3.556,0.494-7.104,0.015-10.654c-1.1-8.13-3.405-15.974-5.691-23.818
					c-2.953-10.125-6.277-20.136-9.158-30.282c-1.743-6.128-3.244-12.313-4.011-18.65c-0.402-3.31-0.636-6.628,0.16-9.926
					c0.283-1.165,0.669-2.284,1.392-3.253c1.032-1.386,2.346-1.79,4.023-1.32c1.311,0.369,2.421,1.085,3.458,1.93
					c0.862,0.702,1.647,1.472,2.388,2.284c-2.456-0.407-4.808-0.071-6.708,2.896c-1.192,1.864-1.276,4.216-1.181,6.426
					c0.66,15.352,7.954,29.494,13.999,43.621c6.048,14.127,11.02,29.871,6.851,44.662
					C160.273,382.809,142.881,394.896,135.73,412.246z"/>
				<path style="fill:#385DAF;" d="M215.431,340.259c-0.021,0.901-0.767,1.24-1.507,1.496c-3.889,1.344-7.496,3.274-10.886,5.56
					c-3.024,2.037-4.517,5.174-5.495,8.581c-0.063,0.214-0.066,0.473,0.199,0.767c0.321-0.134,0.476-0.363,0.595-0.609
					c-0.181,0.916-0.247,1.841-0.178,2.75c-0.039,0.003-0.077,0.012-0.122,0.024c-0.499,0.146-0.514,0.651-0.443,1.079
					c0.137,0.8,0.387,1.564,0.77,2.286c0.827,1.567,1.852,2.988,3.092,4.255c2.905,2.97,6.396,5.055,10.178,6.696
					c0.479,0.208,0.966,0.407,1.412,0.675c0.503,0.306,0.892,0.732,0.812,1.392c-0.083,0.699-0.717,0.711-1.184,0.836
					c-5.73,1.54-11.094,3.964-16.268,6.803c-7.383,4.05-13.925,9.256-20.062,14.983c-5.028,4.689-9.75,9.673-14.335,14.781
					c0.033-0.434,0.125-0.874,0.241-1.273c2.929-10.14,10.395-18.376,18.641-24.968c4.43-3.544,9.259-6.848,12.304-11.635
					c1.588-2.501,2.367-6.336-0.071-8.016c-0.984-0.678-2.248-0.788-3.443-0.74c-7.02,0.271-12.976,4.945-18.584,9.179
					c-1.451,1.097-3.304,2.23-4.969,1.499c2.4-5.522,7.585-9.366,13.039-11.915c2.92-1.365,6.012-2.456,8.579-4.404
					c2.569-1.945,4.582-5.016,4.21-8.216c-0.309-2.691-2.245-4.957-4.511-6.435c-2.269-1.478-4.882-2.316-7.395-3.318
					c-3.488-1.389-6.836-3.125-9.985-5.171c-1.053-0.684-2.013-2.459-0.836-2.899c0.309-0.116,0.651-0.048,0.969,0.027
					c6.863,1.585,13.398,5.56,20.404,4.844c1.906-0.193,3.964-0.886,4.882-2.563c1.528-2.786-0.922-6.003-3.104-8.314
					c-6.976-7.377-12.979-15.676-17.808-24.608c-0.482-0.892-0.966-1.853-0.901-2.864c0.024-0.363,0.146-0.728,0.339-1.044
					c3.711,5.355,7.621,10.571,11.781,15.614c6.461,7.835,13.836,14.641,22.364,20.184c1.915,1.246,3.871,2.409,5.953,3.357
					C214.711,339.212,215.452,339.456,215.431,340.259z"/>
				<path style="fill:#385DAF;" d="M291.323,203.981c-0.181,0.339-0.357,0.681-0.532,1.026c-1.115,2.203-2.319,4.362-3.755,6.384
					c-2.724,3.839-6.286,6.432-10.954,7.368c-1.163,0.235-2.343,0.384-3.536,0.39c-3.47-0.089-6.756-0.94-9.896-2.4
					c-3.437-1.594-6.5-3.749-9.316-6.259c-6.779-6.051-12.066-13.277-16.434-21.192c-1.757-3.179-2.73-6.669-3.538-10.199
					c-0.193-0.836-0.066-1.528,0.523-2.233c2.596-3.122,4.734-6.542,6.387-10.255c0.348-0.776,0.871-1.329,1.57-1.784
					c3.61-2.349,7.579-3.934,11.594-5.412c5.923-2.177,12.013-3.705,18.278-4.505c-5.195,1.57-10.169,3.854-14.713,6.827
					c-4.65,3.045-9.105,7.154-10.27,12.59c-1.055,4.918,0.764,9.952,2.646,14.615c2.165,5.37,4.502,10.779,8.195,15.236
					c3.693,4.46,8.974,7.921,14.76,8.168C279.402,212.652,285.566,208.343,291.323,203.981z"/>
				<path style="fill:#4A7FC3;" d="M271.091,298.529c-0.696,1.769-1.487,3.488-2.373,5.168c-4.148,2.236-10.844,5.192-18.733,6.215
					c-6.167,0.8-13.063,0.419-20.032-2.409c0,0,12.381,1.234,23.229-0.948c4.02-0.809,7.829-2.09,10.719-4.077
					c-0.167,0.068-4.005,1.641-9.842,2.001c-7.871,0.491-19.375-1.225-30.392-11.814c0,0,15.795,8.578,30.556,8.635
					c3.393,0.012,6.732-0.425,9.809-1.519c0,0-5.26-0.279-11.864-2.23c-8.507-2.513-19.244-7.8-23.844-18.84
					c0.089,0.146,3.268,5.248,11.302,10.279C246.361,293.209,256.504,297.375,271.091,298.529z"/>
				<path style="fill:#4A7FC3;" d="M350.019,364.793c0,0-28.022,4.097-38.932-26.877c-0.071-1.097-0.11-2.215-0.122-3.354
					c0.072-2.465,0.238-4.995,0.571-7.541C312.973,335.914,319.791,362.545,350.019,364.793z"/>
				<path style="fill:#4A7FC3;" d="M312.414,322.055c0.068-0.315,0.146-0.63,0.223-0.946c0.208-0.833,0.479-1.641,0.847-2.414
					c0.339-0.711,0.488-0.946,0.809-0.788c0,0.003,0,0.003,0,0.003c3.194,5.76,16.434,24.998,48.39,19.307
					C362.684,337.217,332.033,350.862,312.414,322.055z"/>
				<path style="fill:#4A7FC3;" d="M359.196,351.816c0,0-36.015,12.06-47.507-25.884c0.161-1.085,0.354-2.174,0.586-3.256
					C314.588,329.405,325.75,355.429,359.196,351.816z"/>
				<path style="fill:#4A7FC3;" d="M243.572,388.173c0,0,10.663-2.777,16.993-11.145c1.392-0.217,2.78-0.458,4.169-0.72
					C260.866,382.387,254.172,389.009,243.572,388.173z"/>
				<path style="fill:#4A7FC3;" d="M249.7,395.904c0.184-0.122,7.502-4.998,13.158-11.823c2.144-2.584,4.047-5.45,5.236-8.442
					c0.089-0.018,0.178-0.039,0.268-0.056c1.285-0.274,2.563-0.562,3.836-0.868c-0.714,2.421-1.894,5.236-3.842,8.076
					C264.972,387.724,259.281,392.734,249.7,395.904z"/>
				<path style="fill:#4A7FC3;" d="M281.615,372.158c-0.821,2.554-1.986,5.685-3.592,8.992c-4.02,8.278-10.785,17.645-21.721,21.733
					c0.229-0.184,12.117-9.857,16.666-20.912c1.068-2.584,1.731-5.245,1.751-7.877C277.035,373.505,279.334,372.863,281.615,372.158
					z"/>
				<path style="fill:#4A7FC3;" d="M278.255,207.496c-0.613-0.202-33.618-11.189-43.868-31.245c0.173-0.214,0.342-0.428,0.509-0.645
					C240.206,181.305,257.949,199.226,278.255,207.496z"/>
				<path style="fill:#4A7FC3;" d="M292.191,192.833c0,0-35.366-3.179-55.598-19.583c0.503-0.743,0.981-1.502,1.43-2.275
					C249.757,178.139,270.848,189.408,292.191,192.833z"/>
				<g>
					<path style="fill:#3F6DB2;" d="M236.317,231.854c-1.139,0.958-2.334,1.823-3.696,2.394c-2.411,1.005-4.764,2.132-7.077,3.327
						c-2.872,1.49-5.688,3.083-8.495,4.695c-1.296,0.746-2.625,1.427-3.987,2.019c-1.852,0.806-3.767,1.451-5.768,1.867
						c-3.431,0.717-6.878,0.892-10.291-0.128c-4.118-1.228-6.512-3.925-6.931-8.257c-0.146-1.496,0.175-2.935,0.595-4.35
						c0.583-1.969,1.478-3.806,2.376-5.641c1.484-3.036,2.861-6.111,3.732-9.39c0.405-1.516,0.702-3.03,0.892-4.546
						c0.155-1.231,0.238-2.462,0.253-3.696c0.033-2.747-0.282-5.498-0.945-8.251c-0.098-0.404-0.327-0.803-0.063-1.228
						c0.375-0.098,0.639,0.137,0.919,0.3c3.057,1.76,6.102,3.538,9.131,5.337c2.198,1.305,4.389,2.623,6.572,3.955
						c0.815,0.497,1.629,0.996,2.441,1.496c1.728,1.061,3.449,2.135,5.165,3.217c1.308,0.821,2.614,1.65,3.916,2.486
						c1.502,0.963,2.997,1.933,4.487,2.914c2.111,1.383,4.213,2.786,6.307,4.204C238.517,226.392,238.49,230.023,236.317,231.854z"
						/>
					<path style="fill:#385DAF;" d="M236.317,231.854c-1.139,0.958-2.334,1.823-3.696,2.394c-2.411,1.005-4.764,2.132-7.077,3.327
						c-0.015-0.589-0.048-1.178-0.11-1.766c-0.273-2.539-1.258-5.183-3.387-6.592c-0.012-0.009-0.027-0.018-0.039-0.024
						c-0.868-0.568-1.841-0.889-2.869-1.062c-2.614-0.44-5.602,0.071-8.234-0.042c-0.975-0.042-1.9-0.167-2.739-0.458
						c-0.952-0.33-1.796-0.874-2.474-1.745c-0.071-0.092-0.14-0.187-0.202-0.282c-0.574-0.853-0.862-1.832-1.041-2.86
						c-0.273-1.579-0.291-3.28-0.708-4.829c-0.844-3.137-3.3-5.551-5.745-7.695c-0.027-0.024-0.054-0.048-0.08-0.071
						c0.033-2.747-0.282-5.498-0.945-8.251c-0.098-0.404-0.327-0.803-0.063-1.228c0.375-0.098,0.639,0.137,0.919,0.3
						c3.057,1.76,6.102,3.538,9.131,5.337c2.198,1.305,4.389,2.623,6.572,3.955c0.815,0.497,1.629,0.996,2.441,1.496
						c1.728,1.061,3.449,2.135,5.165,3.217c1.308,0.821,2.614,1.65,3.916,2.486c1.502,0.963,2.997,1.933,4.487,2.914
						c2.111,1.383,4.213,2.786,6.307,4.204C238.517,226.392,238.49,230.023,236.317,231.854z"/>
					<path style="fill:#4A7FC3;" d="M197.504,232.11c0.193-0.184,4.047-3.913,6.946-9.367c2.456-4.612,4.225-10.461,2.51-16.437
						c2.198,1.305,4.389,2.623,6.572,3.955c-0.767,3.812-2.78,9.696-8.04,15.343C203.391,227.861,200.772,230.079,197.504,232.11z"
						/>
					<path style="fill:#4A7FC3;" d="M199.82,237.549c0.125-0.131,4.279-4.425,8.347-9.917c3.741-5.046,7.404-11.106,7.805-15.875
						c1.728,1.061,3.449,2.135,5.165,3.217c-1.965,3.369-5.195,8.016-10.232,13.116C207.896,231.141,204.239,234.352,199.82,237.549
						z"/>
					<path style="fill:#4A7FC3;" d="M229.54,220.374c-1.689,2.596-4.103,5.623-7.532,8.819c-4.231,3.943-10.006,8.138-17.871,12.087
						c0.41-0.27,8.894-5.917,15.001-13.149c2.822-3.342,5.138-7.023,5.914-10.672C226.555,218.423,228.05,219.393,229.54,220.374z"
						/>
				</g>
				<path style="opacity:0.43;fill:#4B7DBC;" d="M310.633,175.807c-0.702,2.45-1.945,4.633-3.41,6.699
					c-1.338,1.888-2.813,3.672-4.353,5.391c-2.872,0.72-5.879,0.773-8.828,0.52c-4.127-0.351-8.335-1.353-11.65-3.842
					c-5.23-3.925-7.332-10.978-6.934-17.505c0.199-3.253,0.922-8.281,2.423-12.75c2.988-0.182,5.983-0.202,8.977-0.009
					c4.951,0.321,9.792,1.246,14.338,3.366c2.081,0.969,4.014,2.171,5.661,3.779C310.978,165.483,312.215,170.279,310.633,175.807z"
					/>
				<path style="fill:#4A7FC3;" d="M301.442,172.165c0,0-37.305,7.104-61.491-4.853c0.11-0.232,0.217-0.467,0.321-0.702
					c0.241-0.538,0.568-0.969,0.978-1.329C254.196,169.046,278.921,174.832,301.442,172.165z"/>
				<path style="fill:#ADCDEE;" d="M270.993,316.393c-7.068,10.193-18.409,16.886-30.368,20.178
					c-4.46,1.228-9.012,2.022-13.609,2.486c5.385-2.046,10.672-4.335,15.792-7.035c10.963-5.778,19.907-13.758,26.25-24.493
					c3.339-5.65,5.81-11.644,6.845-18.165c1.32-8.326,0.687-16.491-2.182-24.439c-3.818-10.58-10.044-19.569-18.109-27.344
					c-5.843-5.632-12.352-10.413-19.006-15.013c-12.093-8.361-24.674-15.938-37.389-23.303
					c-9.583-5.548-19.218-11.017-28.438-17.172c-9.506-6.342-18.661-13.14-27.005-20.975c-4.975-4.671-9.566-9.667-13.104-15.551
					c-0.621-1.035-1.21-2.084-1.736-3.167c-0.473-0.964-0.898-1.951-1.255-2.974c-0.155-0.44-0.336-0.868-0.309-1.305
					c0.354-0.178,0.532,0.015,0.708,0.155c4.276,3.393,9.221,5.444,14.338,7.145c3.744,1.243,7.544,2.263,11.377,3.155
					c3.098,0.723,6.218,1.362,9.346,1.971c4.538,0.883,9.084,1.725,13.666,2.349c-27.705-3.084-37.262-6.73-33.475-2.608
					c19.137,16.402,37.546,31.189,59.354,43.374c0.211,0.116,0.422,0.235,0.636,0.354c1.133,0.627,2.275,1.249,3.428,1.864
					c24.721,13.181,54.474,29.768,67.733,55.672C284.323,270.792,283.473,298.398,270.993,316.393z"/>
				<g>
					<path style="fill:#FFFFFF;" d="M198.411,122.079c0,0.018-0.003,0.036-0.003,0.053c-0.211,3.75-1.811,6.785-4.873,9.007
						c-4.407,3.199-10.467,3.128-14.772-0.122c-3.467-2.617-4.936-6.735-4.255-10.639c0.345-1.995,1.255-3.934,2.748-5.59
						c4.306-4.775,11.9-5.418,16.916-1.403C196.933,115.6,198.292,118.526,198.411,122.079z"/>
					<path style="fill:#EAEAEA;" d="M198.408,122.133c-0.211,3.75-1.811,6.785-4.873,9.007c-4.407,3.199-10.467,3.128-14.772-0.122
						c-3.467-2.617-4.936-6.735-4.255-10.639c0.845,1.073,1.591,2.108,2.706,2.985c3.562,2.807,8.382,3.901,12.837,3.045
						C193.165,125.811,196.074,124.286,198.408,122.133z"/>
					<path style="fill:#253147;" d="M195.467,122.088c-0.152,2.852-1.359,5.159-3.684,6.848c-3.33,2.414-7.906,2.361-11.16-0.095
						c-3.529-2.664-4.32-7.389-2.081-11.005c0.271-0.437,0.583-0.856,0.943-1.255c3.253-3.607,8.992-4.091,12.78-1.059
						c1.707,1.365,2.703,3.092,3.06,5.144C195.405,121.125,195.452,121.598,195.467,122.088z"/>
					<path style="fill:#35455F;" d="M195.467,122.088c-0.152,2.852-1.359,5.159-3.684,6.848c-3.33,2.414-7.906,2.361-11.16-0.095
						c-3.529-2.664-4.32-7.389-2.081-11.005c0.818,1.1,1.936,3.408,2.703,4.041c1.522,1.264,3.393,2.117,5.37,2.319
						c3.244,0.327,6.545-1.112,8.709-3.53C195.405,121.125,195.452,121.598,195.467,122.088z"/>
					<path style="fill:#192230;" d="M190.189,117.848c-2.453-1.965-6.169-1.65-8.275,0.686c-2.159,2.395-1.824,6.006,0.737,7.94
						c2.107,1.591,5.071,1.625,7.227,0.061c1.506-1.093,2.288-2.587,2.385-4.434C192.205,120.362,191.541,118.931,190.189,117.848z"
						/>
					<path style="fill:#FFFFFF;" d="M186.348,119.295c0,1.677-1.359,3.036-3.036,3.036c-1.677,0-3.036-1.359-3.036-3.036
						c0-1.677,1.359-3.036,3.036-3.036C184.988,116.259,186.348,117.618,186.348,119.295z"/>
				</g>
				<g>
					<path style="fill:#4A7FC3;" d="M316.095,103.914c-19.809,0.354-27.511,3.527-30.107,6.797c-2.997-1.451-6.03-2.816-9.108-4.086
						C297.338,101.018,316.095,103.914,316.095,103.914z"/>
					<path style="fill:#4A7FC3;" d="M322.884,115.044c-10.672-0.743-15.635,2.667-17.924,6.325c-1.112-0.722-2.233-1.427-3.366-2.12
						c-0.39-0.238-0.782-0.476-1.174-0.711C310.047,111.113,322.884,115.044,322.884,115.044z"/>
					<path style="fill:#4A7FC3;" d="M332.744,127.979c-7.199-0.502-11.802,0.889-14.737,2.968c-0.925-0.773-1.861-1.531-2.81-2.278
						C323.77,125.231,332.744,127.979,332.744,127.979z"/>
					<path style="fill:#4A7FC3;" d="M343.493,143.652c-5.572-1.406-9.735-1.341-12.845-0.485c-0.69-0.779-1.389-1.546-2.099-2.301
						C336.594,140.108,343.493,143.652,343.493,143.652z"/>
					<path style="fill:#4A7FC3;" d="M353.115,159.349c-4.401-1.109-7.921-1.305-10.737-0.916c-0.44-0.66-0.883-1.317-1.335-1.968
						C347.792,156.613,353.115,159.349,353.115,159.349z"/>
					<path style="fill:#4A7FC3;" d="M362.235,178.254c-4.115-2.307-7.57-3.408-10.464-3.72c-0.416-0.818-0.842-1.633-1.27-2.441
						C357.429,173.88,362.235,178.254,362.235,178.254z"/>
					<path style="fill:#4A7FC3;" d="M369.213,195.462c-3.895-2.182-7.202-3.286-9.994-3.663c-0.265-0.749-0.532-1.496-0.812-2.239
						C364.83,191.471,369.213,195.462,369.213,195.462z"/>
					<path style="fill:#4A7FC3;" d="M373.04,219.03c-3.033-2.679-5.781-4.392-8.243-5.4c-0.122-0.755-0.253-1.51-0.389-2.263
						C369.864,214.579,373.04,219.03,373.04,219.03z"/>
					<path style="fill:#4A7FC3;" d="M374.06,242.452c-2.658-3.197-5.174-5.337-7.502-6.705v-0.83
						c-0.003-0.497-0.006-0.993-0.015-1.49C371.426,237.358,373.932,242.199,374.06,242.452z"/>
					<path style="fill:#4A7FC3;" d="M369.207,263.391c-1.439-1.731-2.834-3.149-4.181-4.306c0.057-0.455,0.113-0.91,0.169-1.365
						C367.777,260.626,369.115,263.207,369.207,263.391z"/>
				</g>
				<path style="fill:#3F6DB2;" d="M218.45,114.571c-0.368-1.954-2.503-2.685-4.226-2.685c-1.67,0-3.4,1.502-3.071,3.251
					c0.368,1.954,2.503,2.685,4.226,2.685C217.049,117.822,218.779,116.32,218.45,114.571z"/>
				<path style="fill:#3F6DB2;" d="M237.047,107.221c-0.36-1.913-2.45-2.628-4.137-2.628c-1.634,0-3.328,1.47-3.006,3.183
					c0.36,1.913,2.45,2.628,4.137,2.628C235.676,110.403,237.37,108.933,237.047,107.221z"/>
				<path style="fill:#3F6DB2;" d="M241.395,116.854c-0.342-1.817-2.327-2.496-3.929-2.496c-1.552,0-3.161,1.397-2.855,3.023
					c0.342,1.817,2.327,2.496,3.929,2.496C240.092,119.877,241.701,118.481,241.395,116.854z"/>
				<path style="fill:#3F6DB2;" d="M269.855,120.237c-0.359-1.906-2.441-2.619-4.122-2.619c-1.629,0-3.316,1.465-2.995,3.171
					c0.359,1.906,2.441,2.619,4.122,2.619C268.489,123.408,270.176,121.943,269.855,120.237z"/>
				<path style="fill:#3F6DB2;" d="M294.677,124.204c-0.068-0.398-0.232-0.745-0.493-1.041c-0.219-0.357-0.513-0.643-0.881-0.86
					c-0.266-0.133-0.531-0.267-0.797-0.4c-0.449-0.182-0.912-0.264-1.389-0.246c-0.309-0.044-0.612-0.022-0.911,0.067
					c-0.432,0.047-0.835,0.187-1.208,0.421c-0.209,0.163-0.418,0.327-0.627,0.49c-0.37,0.376-0.596,0.825-0.677,1.347
					c-0.02,0.443-0.016,0.887,0.046,1.326c0.067,0.395,0.231,0.74,0.489,1.033c0.217,0.354,0.509,0.639,0.875,0.853
					c0.264,0.132,0.527,0.265,0.791,0.397c0.446,0.181,0.906,0.262,1.379,0.244c0.306,0.044,0.608,0.022,0.904-0.067
					c0.429-0.047,0.828-0.186,1.2-0.418c0.208-0.162,0.415-0.324,0.623-0.486c0.367-0.374,0.591-0.819,0.672-1.337
					c0.014-0.1,0.029-0.199,0.037-0.299C294.734,124.92,294.692,124.537,294.677,124.204z"/>
				<path style="fill:#3F6DB2;" d="M298.098,141.744c-0.354-1.878-2.406-2.581-4.063-2.581c-1.605,0-3.269,1.444-2.952,3.126
					c0.354,1.878,2.406,2.581,4.063,2.581C296.751,144.87,298.414,143.426,298.098,141.744z"/>
				<path style="fill:#3F6DB2;" d="M321.916,150.794c-0.359-1.906-2.441-2.619-4.122-2.619c-1.629,0-3.316,1.465-2.995,3.171
					c0.359,1.906,2.441,2.619,4.122,2.619C320.549,153.965,322.237,152.5,321.916,150.794z"/>
				<path style="fill:#3F6DB2;" d="M338.16,186.457c-0.084-0.233-0.168-0.467-0.252-0.7c-0.152-0.209-0.304-0.418-0.456-0.628
					c-0.287-0.319-0.627-0.559-1.019-0.719c-0.393-0.232-0.82-0.372-1.282-0.42c-0.183-0.041-0.366-0.082-0.548-0.124
					c-0.629-0.09-1.247-0.044-1.855,0.137c-0.545,0.163-1.02,0.444-1.423,0.844c-0.152,0.21-0.304,0.421-0.455,0.631
					c-0.241,0.482-0.312,0.988-0.213,1.517c0.069,0.405,0.236,0.759,0.502,1.06c0.223,0.363,0.522,0.655,0.897,0.876
					c0.534,0.342,1.116,0.556,1.745,0.643c0.629,0.09,1.247,0.044,1.855-0.137c0.168-0.039,0.335-0.079,0.503-0.118
					c0.25-0.11,0.5-0.22,0.751-0.33c0.354-0.185,0.63-0.445,0.829-0.779c0.18-0.183,0.29-0.402,0.33-0.656
					C338.22,187.206,338.251,186.84,338.16,186.457z"/>
				<path style="fill:#3F6DB2;" d="M350.75,196.066c-0.115-0.531-0.361-0.992-0.738-1.383c-0.415-0.429-0.904-0.746-1.465-0.951
					c-0.456-0.185-0.926-0.268-1.41-0.25c-0.464-0.05-0.92,0.001-1.369,0.152c-0.543,0.162-1.016,0.442-1.418,0.841
					c-0.375,0.382-0.604,0.837-0.687,1.367c-0.067,0.531,0.028,1.033,0.284,1.503c0.075,0.166,0.15,0.331,0.225,0.497
					c0.147,0.203,0.295,0.406,0.442,0.609c0.204,0.169,0.408,0.339,0.612,0.508c0.251,0.126,0.502,0.252,0.753,0.378
					c0.424,0.172,0.862,0.25,1.313,0.233c0.292,0.042,0.578,0.021,0.861-0.063c0.278-0.02,0.537-0.099,0.778-0.238
					c0.253-0.076,0.473-0.206,0.66-0.391c0.314-0.201,0.553-0.473,0.719-0.817c0.076-0.16,0.152-0.32,0.229-0.481
					C350.778,197.098,350.848,196.594,350.75,196.066z"/>
				<path style="fill:#3F6DB2;" d="M345.382,231.557c-0.158-0.217-0.315-0.434-0.473-0.651c-0.414-0.427-0.901-0.743-1.46-0.948
					c-0.454-0.184-0.922-0.267-1.405-0.249c-0.462-0.05-0.917,0.001-1.364,0.151c-0.419,0.107-0.784,0.304-1.096,0.59
					c-0.336,0.215-0.592,0.506-0.769,0.874c-0.239,0.478-0.31,0.98-0.212,1.506l0.171,0.64c0.081,0.303,0.156,0.615,0.302,0.893
					c0.166,0.315,0.365,0.544,0.607,0.773c0.714,0.673,1.531,1.017,2.51,1.049c0.405,0.044,0.803-0.001,1.195-0.132
					c0.474-0.142,0.887-0.386,1.238-0.734c0.251-0.212,0.423-0.402,0.592-0.737c0.122-0.244,0.195-0.606,0.275-0.897
					c0.057-0.21,0.114-0.419,0.172-0.629C345.731,232.525,345.637,232.026,345.382,231.557z"/>
				<path style="fill:#3F6DB2;" d="M358.106,249.259c-0.356-1.892-2.424-2.6-4.092-2.6c-1.617,0-3.293,1.455-2.974,3.148
					c0.356,1.892,2.423,2.6,4.092,2.6C356.75,252.407,358.425,250.952,358.106,249.259z"/>
				<path style="fill:#3F6DB2;" d="M342.84,269.629c-0.358-1.899-2.432-2.609-4.107-2.609c-1.623,0-3.304,1.46-2.984,3.16
					c0.358,1.899,2.432,2.609,4.107,2.609C341.479,272.789,343.161,271.329,342.84,269.629z"/>
				<path style="fill:#3F6DB2;" d="M352.208,292.095c-0.159-0.219-0.319-0.439-0.478-0.658c-0.418-0.432-0.911-0.751-1.476-0.958
					c-0.459-0.186-0.932-0.27-1.42-0.252c-0.467-0.05-0.927,0.001-1.379,0.153c-0.423,0.109-0.792,0.308-1.108,0.596
					c-0.339,0.217-0.599,0.512-0.777,0.884c-0.242,0.483-0.313,0.991-0.214,1.522c0.012,0.115,0.023,0.23,0.035,0.346
					c0.006,0.06,0.016,0.114,0.028,0.172c0.113,0.525,0.357,0.981,0.73,1.368c0.22,0.191,0.445,0.378,0.674,0.559
					c0.264,0.132,0.527,0.265,0.791,0.397c0.446,0.181,0.906,0.262,1.379,0.245c0.306,0.044,0.608,0.022,0.904-0.067
					c0.428-0.047,0.828-0.186,1.2-0.418c0.507-0.35,0.842-0.606,1.118-1.169c0.18-0.368,0.213-0.55,0.245-0.862l0.035-0.343
					C352.561,293.073,352.466,292.569,352.208,292.095z"/>
				<path style="fill:#3F6DB2;" d="M333.195,304.716c-0.355-1.885-2.415-2.591-4.078-2.591c-1.611,0-3.281,1.449-2.963,3.137
					c0.355,1.885,2.415,2.591,4.077,2.591C331.843,307.853,333.513,306.403,333.195,304.716z"/>
				<path style="fill:#3F6DB2;" d="M302.046,351.685c-0.353-1.871-2.397-2.572-4.048-2.572c-1.599,0-3.257,1.439-2.941,3.114
					c0.352,1.871,2.397,2.572,4.048,2.572C300.704,354.8,302.362,353.361,302.046,351.685z"/>
				<path style="fill:#3F6DB2;" d="M277.109,357.913c-0.349-1.851-2.371-2.543-4.003-2.543c-1.582,0-3.221,1.423-2.909,3.08
					c0.349,1.851,2.371,2.543,4.003,2.543C275.782,360.993,277.421,359.57,277.109,357.913z"/>
				<path style="fill:#3F6DB2;" d="M249.381,369.231c-0.349-1.851-2.371-2.543-4.003-2.543c-1.582,0-3.221,1.423-2.909,3.08
					c0.349,1.851,2.371,2.543,4.003,2.543C248.054,372.31,249.693,370.887,249.381,369.231z"/>
				<path style="fill:#3F6DB2;" d="M195.147,104.959c-0.358-1.899-2.432-2.609-4.107-2.609c-1.623,0-3.304,1.46-2.984,3.16
					c0.358,1.899,2.432,2.609,4.107,2.609C193.785,108.119,195.467,106.659,195.147,104.959z"/>
				<path style="fill:#3F6DB2;" d="M169.001,104.968c-0.346-1.837-2.353-2.525-3.974-2.525c-1.57,0-3.197,1.413-2.887,3.057
					c0.346,1.837,2.353,2.524,3.974,2.524C167.684,108.025,169.311,106.613,169.001,104.968z"/>
				<path style="fill:#3F6DB2;" d="M134.972,116.857c-0.338-1.796-2.301-2.468-3.885-2.468c-1.535,0-3.125,1.381-2.823,2.989
					c0.338,1.796,2.301,2.468,3.885,2.468C133.684,119.846,135.274,118.465,134.972,116.857z"/>
				<path style="fill:#ADCDEE;" d="M236.739,115.187c0,0,20.217,58.822-34.058,78.476c0,0,18.871-2.435,28.72-15.409
					C231.401,178.254,256.321,153.965,236.739,115.187z"/>
				<path style="fill:#ADCDEE;" d="M196.945,164.627c0,0,6.384-8.086,1.463-8.464c0,0-33.78,0.566-58.113-9.054l-1.196-4.596
					c14.552,6.981,37.016,9.842,65.178,10.76C204.276,153.273,203.798,161.396,196.945,164.627z"/>
			</g>
			<path style="fill:#4A7FC3;" d="M372.669,346.53c-1.481,4.612-3.452,8.932-5.929,12.947c1.103-3.238,1.962-6.56,2.566-9.928
				c1.082-6.042,0.943-13.22-3.791-17.13c-1.763-1.454-3.967-2.26-6.155-2.929c-3.315-1.014-6.661-1.51-10.024-2.141
				c2.423-0.321,4.841-0.675,7.279-0.88c3.268-0.277,6.553-0.449,9.777,0.431c4.315,1.181,6.839,3.654,7.478,8.947
				C374.313,339.5,373.784,343.065,372.669,346.53z"/>
			<path style="fill:#4A7FC3;" d="M242.07,317.505c-0.767,0.098-1.496,0.169-2.12,0.122c-4.297-0.074-7.939-1.047-10.925-2.977
				c-3.057-1.968-5.424-4.942-7.098-8.977c-1.395-3.363-2.076-6.886-2.376-10.517c-0.333-4.014-0.077-7.966,0.782-11.873
				c-0.137,1.499-0.164,3.033-0.098,4.606c0.315,7.553,2.492,15.215,7.282,21.064c1.769,2.159,3.925,4.032,6.319,5.486
				C236.373,315.986,239.18,317.059,242.07,317.505z"/>
			<path style="fill:#4A7FC3;" d="M281.097,384.938c-1.457,2.56-2.792,5.198-4.05,7.892c-1.525,3.271-3.039,6.554-4.832,9.694
				c-1.085,1.903-2.278,3.732-3.874,5.263c-1.933,1.849-4.148,3.14-6.833,3.574c-2.049,0.333-3.976-0.116-5.858-0.812
				c-3.003-1.115-5.462-3.069-7.689-5.302c-1.059-1.065-2.037-2.168-2.932-3.313c1.112,0.791,2.278,1.505,3.506,2.114
				c5.028,2.495,11.261,3.066,16.2,0.396c6.521-3.524,9.155-11.388,13.964-17.029C279.37,386.627,280.181,385.779,281.097,384.938z"
				/>
			<path style="fill:#4A7FC3;" d="M213.061,244.289c-1.852,0.806-3.767,1.451-5.768,1.867c-3.431,0.717-6.878,0.892-10.291-0.128
				c-4.118-1.228-6.512-3.925-6.931-8.257c-0.146-1.496,0.175-2.935,0.595-4.35c0.583-1.969,1.478-3.806,2.376-5.641
				c1.484-3.036,2.861-6.111,3.732-9.39c0.405-1.516,0.702-3.03,0.892-4.546c0.5,3.878-0.122,8.168-1.219,11.451
				c-1.317,3.94-3.646,7.945-2.614,11.965c0.675,2.643,2.774,4.77,5.23,5.962c2.456,1.189,5.239,1.537,7.969,1.543
				C209.059,244.771,211.069,244.596,213.061,244.289z"/>
			<path style="fill:#4A7FC3;" d="M310.633,175.807c-0.702,2.45-1.945,4.633-3.41,6.699c-1.338,1.888-2.813,3.672-4.353,5.391
				c-0.265,0.297-0.532,0.592-0.803,0.886c-4.24,4.615-7.829,9.664-10.743,15.197c-0.181,0.339-0.357,0.681-0.532,1.026
				c-0.11,0.217-0.22,0.434-0.333,0.648c0.068-0.776,0.152-1.552,0.256-2.322c0.467-3.461,1.338-6.934,3.182-9.899
				c1.647-2.641,3.987-4.761,6.048-7.092c3.643-4.118,6.533-9.31,6.298-14.802c-0.318-7.386-6.34-13.544-13.196-16.309
				c-0.238-0.095-0.476-0.187-0.714-0.277c3.042,0.532,6.009,1.392,8.864,2.724c2.081,0.969,4.014,2.171,5.661,3.779
				C310.978,165.483,312.215,170.279,310.633,175.807z"/>
			<path style="fill:#4A7FC3;" d="M377.221,231.75c-0.152,2.97-0.389,5.917-0.717,8.837c0.815-33.538-9.396-67.394-29.262-94.476
				c-7.089-9.664-15.468-18.757-19.393-30.083c-2.18-6.292-3.146-13.577-7.065-18.962c3.625,0.845,5.98,2.941,7.065,6.803
				c1.389,4.939,3.113,9.777,5.361,14.409c2.971,6.128,6.465,11.956,10.056,17.728c5.126,8.231,10.493,16.313,15.349,24.713
				c5.557,9.613,10.386,19.554,13.663,30.196c2.004,6.509,3.414,13.137,4.216,19.907
				C377.319,217.781,377.578,224.766,377.221,231.75z"/>
			
				<ellipse transform="matrix(0.1598 -0.9872 0.9872 0.1598 45.805 337.1413)" style="fill:#E27E6E;" cx="220.946" cy="141.664" rx="8.605" ry="8.605"/>
			<g>
				<path style="fill:#4A7FC3;" d="M180.393,322.936c-9.247-7.902-15.249-18.907-20.217-30.009
					c-3.058-6.834-6.181-14.26-12.555-18.187c5.416,6.943,6.682,16.128,9.46,24.484c2.109,6.343,5.176,12.367,9.064,17.805
					c3.984,5.571,8.98,10.631,15.233,13.424c2.756,1.231,5.944,3.09,8.637,3.913C190.88,330.164,183.202,325.336,180.393,322.936z"
					/>
				<path style="fill:#4A7FC3;" d="M162.332,386.495c-4.407,3.041-8.759,6.267-12.214,10.358
					c-7.691,9.108-10.164,21.638-9.839,33.555c3.213-16.301,12.888-31.237,26.45-40.834c6.266-4.434,15.561-8.604,18.668-16.122
					C180.605,371.718,166.552,383.584,162.332,386.495z"/>
				<path style="fill:#4A7FC3;" d="M185.566,356.019c-2.403,0.968-5.1,0.918-7.658,0.515c-3.187-0.502-6.671-1.478-9.466,0.133
					c2.342-3.542,6.656-5.682,10.893-5.402c2.054,0.136,4.052,0.793,6.109,0.866c1.349,0.048,2.773-0.313,4.006-0.781
					C189.873,353.488,187.471,355.251,185.566,356.019z"/>
			</g>
			<path style="fill:#ADCDEE;" d="M292.345,239.72c-0.017-0.25-0.034-0.5-0.05-0.751c-0.095-0.557-0.325-1.042-0.69-1.457
				c-0.306-0.499-0.717-0.9-1.233-1.203c-0.372-0.187-0.743-0.373-1.115-0.56c-0.629-0.255-1.277-0.37-1.945-0.345
				c-0.432-0.062-0.857-0.031-1.274,0.094c-0.604,0.066-1.168,0.262-1.691,0.589c-0.293,0.229-0.585,0.457-0.878,0.686
				c-0.518,0.527-0.834,1.155-0.947,1.885c-0.017,0.249-0.034,0.498-0.051,0.747c-0.093,0.74,0.039,1.439,0.395,2.094
				c0.221,0.303,0.441,0.607,0.662,0.91c0.579,0.598,1.26,1.039,2.042,1.326c0.635,0.258,1.29,0.374,1.965,0.348
				c0.646,0.069,1.282-0.001,1.907-0.211c0.585-0.15,1.096-0.425,1.533-0.825c0.47-0.301,0.828-0.708,1.076-1.223
				C292.384,241.157,292.483,240.455,292.345,239.72z"/>
			<path style="fill:#ADCDEE;" d="M301.7,222.401c-0.451-2.393-3.066-3.289-5.177-3.289c-2.045,0-4.165,1.84-3.761,3.982
				c0.451,2.393,3.066,3.289,5.177,3.289C299.984,226.384,302.104,224.544,301.7,222.401z"/>
			<path style="fill:#ADCDEE;" d="M307.015,271.441c-0.454-2.411-3.089-3.314-5.215-3.314c-2.06,0-4.196,1.854-3.79,4.012
				c0.454,2.411,3.089,3.314,5.216,3.314C305.286,275.454,307.422,273.6,307.015,271.441z"/>
			<path style="fill:#ADCDEE;" d="M285.755,322.003c-0.441-2.339-2.996-3.214-5.06-3.214c-1.999,0-4.071,1.798-3.676,3.892
				c0.441,2.339,2.996,3.215,5.06,3.215C284.077,325.896,286.149,324.097,285.755,322.003z"/>
		</g>
		<g>
			<path style="fill:#20395A;" d="M371.309,181.641c-3.918-9.945-9.058-19.256-14.623-28.349
				c-4.864-7.948-10.013-15.717-14.837-23.69c-4.94-8.164-9.199-16.631-11.823-25.853c-0.35-1.232-0.813-2.432-1.381-3.588
				c-0.965-1.963-2.451-3.362-4.457-4.219c-1.272-0.544-2.599-0.908-3.955-1.163c-4.114-0.773-8.275-1.146-12.442-1.507
				c-4.694-0.406-9.397-0.574-14.1-0.702c-5.422-0.148-10.832,0.144-16.23,0.725c-4.306,0.463-8.563,1.148-12.729,2.343
				c-2.833,0.812-5.6,1.821-8.332,2.92c-1.155,0.465-2.243,0.518-3.455,0.204c-12.945-3.348-26.138-4.833-39.48-5.102
				c-6.467-0.13-12.929,0.03-19.386,0.489c-7.351,0.522-14.657,1.363-21.927,2.565c-9.587,1.585-18.929,4.065-28.039,7.431
				c-5.824,2.152-11.319,4.941-16.385,8.545c-1.87,1.33-3.557,2.863-4.901,4.739c-1.977,2.759-2.706,5.794-2.158,9.174
				c0.477,2.949,1.709,5.522,3.561,7.818c0.524,0.649,0.89,1.327,1.026,2.149c0.541,3.274,1.754,6.302,3.363,9.19
				c2.704,4.853,6.126,9.16,9.945,13.168c6.821,7.155,14.53,13.262,22.504,19.056c8.78,6.379,17.994,12.081,27.375,17.52
				c0.7,0.406,1.394,0.813,1.967,1.402c2.943,3.022,4.784,6.607,5.42,10.775c0.482,3.155-0.012,6.253-0.765,9.316
				c-0.857,3.486-2.366,6.714-3.956,9.908c-0.974,1.958-1.93,3.92-2.546,6.032c-0.652,2.236-0.817,4.506-0.336,6.769
				c0.958,4.507,3.937,7.166,8.216,8.413c3.68,1.072,7.43,0.887,11.156,0.169c4.064-0.784,7.763-2.513,11.309-4.573
				c4.483-2.604,9.003-5.124,13.803-7.11c1.186-0.491,2.309-1.119,3.373-1.846c2.049-1.401,3.699-3.116,4.488-5.546
				c0.273-0.84,0.377-0.847,1.083-0.405c0.241,0.151,0.464,0.331,0.694,0.5c3.754,2.768,7.369,5.705,10.783,8.885
				c7.4,6.893,13.294,14.857,17.288,24.188c3.764,8.794,5.002,17.881,3.279,27.328c-0.136,0.747-0.25,1.506-0.802,2.097
				c-2.108,2.26-4.643,3.289-7.708,2.49c-3.749-0.977-6.963-3-9.969-5.37c-2.843-2.241-5.462-4.73-7.95-7.359
				c-1.928-2.038-3.811-4.12-5.864-6.037c-1.499-1.399-3.082-2.695-4.862-3.719c-2.231-1.284-4.606-1.992-7.222-1.682
				c-3.061,0.363-5.419,1.924-7.321,4.259c-1.872,2.297-2.953,4.978-3.625,7.826c-1.034,4.383-1.274,8.825-0.924,13.313
				c0.305,3.915,1.084,7.714,2.63,11.331c3.6,8.424,10.513,12.949,19.696,12.859c3.443-0.034,6.806-0.67,10.064-1.771
				c3.963-1.339,7.809-2.973,11.562-4.825c0.413-0.204,0.775-0.551,1.405-0.516c-0.124,0.617-0.504,0.93-0.802,1.285
				c-4.712,5.628-10.187,10.377-16.494,14.136c-6.762,4.03-14.026,6.985-21.339,9.827c-1.418,0.551-2.922,0.508-4.366,0.225
				c-3.43-0.671-6.669-1.885-9.628-3.778c-7.742-4.953-14.656-10.861-20.651-17.842c-8.137-9.475-15.293-19.655-21.861-30.263
				c-3.278-5.294-6.407-10.684-9.991-15.784c-1.533-2.182-3.15-4.295-5.083-6.146c-1.314-1.258-2.737-2.368-4.425-3.079
				c-3.402-1.432-6.326-0.374-8.054,2.876c-0.518,0.974-0.848,2.011-1.09,3.081c-0.756,3.344-0.578,6.717-0.204,10.076
				c0.569,5.107,1.623,10.127,2.939,15.092c3.225,12.171,7.235,24.112,10.568,36.252c1.697,6.181,3.811,12.246,4.834,18.604
				c0.678,4.21,0.829,8.418,0.121,12.628c-0.514,3.058-1.519,5.983-2.677,8.851c-2.541,6.294-6.006,12.074-9.828,17.658
				c-3.249,4.747-6.526,9.476-9.526,14.387c-3.225,5.281-6.249,10.668-8.337,16.52c-1.705,4.781-2.891,9.654-2.175,14.796
				c0.488,3.505,1.645,6.737,4.009,9.441c1.963,2.245,4.665,2.794,7.353,1.509c1.427-0.682,2.687-1.622,3.819-2.721
				c1.023-0.993,2.024-2.012,3.001-3.051c6.029-6.409,11.811-13.04,17.609-19.658c6.082-6.943,12.347-13.713,19.216-19.896
				c8.478-7.632,17.809-13.913,28.467-18.146c3.947-1.568,7.982-2.381,12.223-2.345c4.486,0.038,8.886,0.789,13.295,1.475
				c1.16,0.18,1.7,0.832,1.756,2.07c0.052,1.139,0.072,2.275,0.195,3.413c0.838,7.791,3.757,14.682,8.864,20.631
				c2.436,2.837,5.189,5.323,8.537,7.032c6.142,3.133,11.925,2.284,16.861-2.538c1.06-1.035,1.959-2.199,2.776-3.431
				c1.184-1.786,2.219-3.658,3.16-5.58c1.86-3.799,3.704-7.606,5.556-11.409c4.283-8.795,10.266-16.302,17.382-22.954
				c0.841-0.786,1.764-1.431,2.766-1.993c3.692-2.069,7.337-4.217,10.773-6.697c1.752-1.265,1.727-1.26,2.844,0.519
				c5.355,8.528,12.517,14.999,21.822,18.966c4.318,1.841,8.8,2.379,13.365,0.991c3.39-1.031,6.244-3.016,8.773-5.439
				c7.615-7.295,12.914-16.02,15.868-26.142c1.16-3.975,1.448-8.044,0.676-12.134c-0.806-4.276-3.291-7.182-7.381-8.69
				c-1.615-0.596-3.293-0.92-5.008-1.021c-3.957-0.233-7.877,0.151-11.79,0.712c-2.491,0.357-4.999,0.599-7.5,0.882
				c-0.267,0.03-0.596,0.125-0.747-0.217c-0.113-0.258,0.102-0.442,0.234-0.629c0.82-1.166,1.689-2.301,2.461-3.498
				c2.61-4.045,4.641-8.393,6.702-12.732c2.65-5.579,5.308-11.16,8.647-16.382c1.023-1.6,1.942-3.27,2.861-4.934
				c9.658-17.488,14.23-36.364,15.182-56.194c0.347-7.227,0.046-14.454-0.86-21.637
				C377.294,199.971,374.862,190.661,371.309,181.641z M236.316,231.853c-1.137,0.958-2.333,1.825-3.696,2.393
				c-5.409,2.255-10.501,5.114-15.572,8.025c-3.06,1.756-6.283,3.161-9.756,3.886c-3.432,0.716-6.877,0.891-10.291-0.127
				c-4.117-1.228-6.51-3.925-6.931-8.259c-0.145-1.493,0.177-2.933,0.596-4.349c0.582-1.967,1.477-3.806,2.375-5.642
				c1.484-3.034,2.859-6.11,3.732-9.387c1.459-5.482,1.529-10.98,0.2-16.496c-0.097-0.404-0.327-0.802-0.064-1.227
				c0.375-0.098,0.639,0.138,0.918,0.299c12.934,7.45,25.662,15.224,38.019,23.61C238.518,226.391,238.489,230.022,236.316,231.853z
				 M248.07,316.353c-1.465,0.412-2.948,0.761-4.454,0.946c-1.317,0.162-2.636,0.406-3.667,0.327
				c-8.694-0.15-14.711-3.973-18.021-11.952c-1.396-3.364-2.076-6.888-2.377-10.517c-0.353-4.259-0.044-8.448,0.947-12.591
				c0.478-1.997,1.213-3.907,2.324-5.643c1.579-2.466,3.689-4.187,6.678-4.66c1.566-0.248,3.02,0.132,4.445,0.693
				c1.93,0.76,3.549,2.009,5.098,3.351c2.161,1.872,4.075,3.991,6.031,6.068c2.545,2.703,5.197,5.292,8.065,7.653
				c2.544,2.094,5.271,3.904,8.286,5.249c3.01,1.342,6.096,2.111,9.406,1.192c0.796-0.221,1.012,0.018,0.74,0.776
				c-1.032,2.867-2.33,5.616-3.842,8.261c-0.183,0.32-0.47,0.603-0.764,0.832C261.262,310.794,255.093,314.378,248.07,316.353z
				 M292.211,369.848c-0.134,0.246-0.337,0.46-0.534,0.664c-6.281,6.519-10.826,14.171-14.629,22.317
				c-1.527,3.272-3.039,6.553-4.831,9.694c-1.087,1.904-2.279,3.734-3.876,5.263c-1.932,1.85-4.147,3.14-6.832,3.575
				c-2.048,0.332-3.976-0.116-5.857-0.813c-3.004-1.114-5.464-3.068-7.691-5.302c-5.814-5.83-9.123-12.883-10.132-21.042
				c-0.194-1.566-0.259-3.118-0.082-4.688c0.086-0.768,0.425-1.052,1.196-1.023c1.282,0.049,2.567,0.013,3.85,0.013
				c8.628-0.043,17.139-1.127,25.569-2.924c7.44-1.586,14.738-3.651,21.838-6.395c0.439-0.17,0.876-0.374,1.369-0.364
				C292.253,368.836,292.532,369.257,292.211,369.848z M344.874,327.86c3.931-0.342,7.813-1.062,11.74-1.393
				c3.269-0.276,6.554-0.448,9.776,0.432c4.316,1.179,6.84,3.655,7.48,8.946c0.442,3.655-0.086,7.22-1.201,10.684
				c-2.904,9.026-7.66,16.939-14.439,23.602c-1.222,1.202-2.544,2.289-3.974,3.241c-4.434,2.952-9.179,3.666-14.275,2.041
				c-4.361-1.39-8.242-3.65-11.814-6.465c-7.81-6.155-13.336-13.869-15.912-23.557c-0.921-3.463-1.247-7.009-1.288-10.828
				c0.126-4.375,0.549-8.955,1.67-13.452c0.208-0.833,0.478-1.642,0.848-2.417c0.49-1.027,0.587-1.062,1.375-0.335
				c3.408,3.144,7.398,5.327,11.689,6.965C332.452,327.575,338.559,328.41,344.874,327.86z M344.217,320.945
				c-0.733,1.221-1.621,2.349-2.352,3.571c-0.701,1.171-1.655,1.504-2.98,1.41c-5.026-0.357-9.854-1.477-14.445-3.565
				c-3.697-1.681-7.193-3.671-10.113-6.563c-0.874-0.866-1.638-0.617-2.197,0.535c-1.26,2.594-1.922,5.357-2.383,8.18
				c-0.552,3.383-0.872,6.795-0.876,10.217c-0.006,6.245,1.042,12.295,3.68,18.012c0.534,1.157,0.534,1.202-0.53,1.976
				c-6.288,4.577-12.991,8.43-20.169,11.438c-8.796,3.686-17.94,6.186-27.289,7.994c-4.575,0.884-9.18,1.555-13.823,1.91
				c-4.79,0.367-9.582,0.451-14.393,0.154c-5.424-0.334-10.776-1.049-16.04-2.378c-4.575-1.155-9.017-2.673-13.074-5.154
				c-1.219-0.746-2.385-1.566-3.467-2.501c-2.15-1.858-3.929-3.995-4.992-6.67c-0.134-0.338-0.244-0.829-0.739-0.684
				c-0.5,0.147-0.514,0.653-0.441,1.08c0.136,0.799,0.387,1.565,0.768,2.288c0.827,1.567,1.854,2.987,3.092,4.253
				c2.907,2.971,6.397,5.057,10.18,6.697c0.478,0.207,0.966,0.407,1.411,0.676c0.504,0.305,0.894,0.731,0.814,1.391
				c-0.085,0.699-0.718,0.71-1.186,0.835c-5.728,1.54-11.093,3.964-16.267,6.803c-7.382,4.051-13.925,9.256-20.062,14.983
				c-6.998,6.531-13.404,13.624-19.681,20.838c-5.431,6.243-10.917,12.438-16.625,18.431c-1.447,1.519-2.969,2.939-4.859,3.923
				c-2.613,1.36-4.535,0.829-6.015-1.678c-2.835-4.804-3.279-9.922-2.113-15.282c1.247-5.729,3.718-10.962,6.465-16.082
				c3.49-6.505,7.66-12.583,11.809-18.673c3.587-5.264,7.22-10.5,10.172-16.164c2.031-3.898,3.652-7.935,4.329-12.314
				c0.55-3.555,0.496-7.104,0.016-10.654c-1.099-8.129-3.404-15.973-5.691-23.817c-2.952-10.125-6.277-20.137-9.158-30.283
				c-1.741-6.129-3.245-12.313-4.012-18.649c-0.4-3.309-0.635-6.629,0.163-9.926c0.282-1.164,0.669-2.284,1.392-3.254
				c1.032-1.384,2.345-1.79,4.021-1.319c1.311,0.369,2.421,1.085,3.46,1.93c1.935,1.574,3.491,3.494,4.963,5.487
				c3.452,4.673,6.387,9.68,9.409,14.629c6.477,10.604,13.489,20.825,21.403,30.419c6.463,7.834,13.838,14.639,22.363,20.181
				c1.917,1.246,3.873,2.409,5.955,3.359c0.601,0.275,1.343,0.52,1.323,1.323c-0.022,0.9-0.77,1.24-1.51,1.495
				c-3.889,1.344-7.494,3.273-10.885,5.559c-3.023,2.038-4.517,5.175-5.495,8.582c-0.062,0.215-0.064,0.475,0.199,0.768
				c0.554-0.23,0.616-0.749,0.836-1.144c1.658-2.975,3.514-5.81,6.471-7.65c2.867-1.784,5.891-3.312,9.111-4.349
				c9.821-3.163,19.502-6.674,28.65-11.497c10.962-5.779,19.906-13.759,26.249-24.492c3.339-5.649,5.81-11.646,6.844-18.167
				c1.32-8.326,0.686-16.491-2.183-24.44c-3.819-10.577-10.044-19.567-18.108-27.342c-5.842-5.633-12.352-10.414-19.007-15.015
				c-12.093-8.361-24.673-15.938-37.388-23.302c-9.584-5.55-19.218-11.018-28.439-17.171c-9.506-6.344-18.661-13.14-27.005-20.977
				c-4.973-4.67-9.567-9.667-13.103-15.55c-1.177-1.959-2.237-3.976-2.993-6.142c-0.153-0.44-0.336-0.868-0.309-1.305
				c0.354-0.178,0.533,0.016,0.707,0.155c4.276,3.394,9.22,5.446,14.339,7.146c6.773,2.25,13.728,3.766,20.721,5.127
				c4.893,0.952,9.797,1.854,14.742,2.493c3.912,0.505,7.839,0.892,11.788,0.927c3.947,0.035,7.894,0.01,11.841,0.015
				c1.239,0.001,1.359,0.124,1.058,1.284c-0.841,3.242-2.203,6.174-4.977,8.26c-0.357,0.268-0.977,0.574-0.642,1.101
				c0.387,0.608,0.939,0.14,1.369-0.109c2.838-1.638,4.794-4.03,5.842-7.117c1.611-4.747,1.137-9.362-1.071-13.824
				c-0.38-0.769-0.852-1.487-1.495-2.07c-0.229-0.207-0.513-0.284-0.777-0.083c-0.203,0.154-0.262,0.416-0.177,0.648
				c0.145,0.399,0.323,0.789,0.513,1.169c1.033,2.061,1.724,4.218,1.889,6.529c0.085,1.19,0.033,1.294-1.196,1.403
				c-1.135,0.1-2.279,0.105-3.418,0.172c-4.699,0.275-9.4,0.546-14.107,0.211c-3.936-0.281-7.845-0.804-11.731-1.471
				c-7.018-1.205-14.022-2.499-20.93-4.244c-5.254-1.327-10.442-2.87-15.387-5.13c-2.342-1.07-4.558-2.348-6.596-3.936
				c-3.136-2.443-5.271-5.558-6.476-9.344c-1.067-3.353-0.459-6.376,1.662-9.13c1.409-1.83,3.186-3.26,5.085-4.543
				c4.511-3.046,9.34-5.484,14.432-7.39c9.095-3.404,18.425-5.93,28.013-7.515c6.048-1,12.122-1.745,18.228-2.297
				c7.967-0.719,15.948-0.949,23.935-0.751c34.945,0.866,66.724,11.374,95.28,31.535c11.305,7.981,20.735,17.848,28.621,29.192
				c9.846,14.163,17.457,29.394,21.828,46.152c1.586,6.078,2.69,12.24,3.385,18.485c0.765,6.869,0.939,13.755,0.677,20.648
				c-0.35,9.223-1.416,18.372-2.989,27.468c-1.882,10.881-4.459,21.585-8.041,32.033
				C350.966,308.169,347.948,314.728,344.217,320.945z M377.22,231.749c-1.055,20.594-6.202,40.029-16.767,57.881
				c-0.242,0.408-0.504,0.805-0.78,1.19c-0.109,0.152-0.282,0.25-0.497,0.168c-0.216-0.082-0.273-0.276-0.256-0.456
				c0.027-0.281,0.104-0.558,0.176-0.832c1.946-7.402,3.56-14.873,4.758-22.434c0.803-5.068,1.488-10.149,1.938-15.264
				c0.5-5.686,0.786-11.379,0.765-17.087c-0.072-20.446-4.63-39.848-13.676-58.175c-5.896-11.945-13.023-23.095-21.837-33.127
				c-8.517-9.695-18.468-17.652-29.451-24.365c-12.505-7.644-25.708-13.746-39.745-18.008c-0.045-0.014-0.089-0.033-0.133-0.052
				c-0.466-0.199-1.234-0.132-1.32-0.669c-0.111-0.701,0.645-0.991,1.162-1.288c2.581-1.485,5.38-2.362,8.299-2.883
				c7.182-1.283,14.434-1.68,22.426-1.699c4.611,0.168,9.93,0.305,15.24,0.751c4.12,0.346,8.217,0.799,12.3,1.473
				c4.174,0.689,6.851,2.802,8.029,6.996c1.388,4.939,3.114,9.776,5.361,14.411c2.971,6.126,6.463,11.955,10.057,17.726
				c5.125,8.231,10.491,16.313,15.347,24.712c5.557,9.613,10.388,19.554,13.665,30.197c2.004,6.507,3.412,13.137,4.215,19.905
				C377.319,217.782,377.578,224.765,377.22,231.749z"/>
			<path style="fill:#20395A;" d="M306.777,158.542c-1.778-1.374-3.718-2.466-5.792-3.333c-4.572-1.911-9.381-2.775-14.287-3.036
				c-5.325-0.283-10.638-0.039-15.926,0.76c-9.451,1.429-18.583,3.877-27.149,8.217c-0.312,0.158-0.621,0.467-1.099,0.211
				c-0.14-0.568,0.177-1.088,0.335-1.609c1.063-3.515,1.8-7.104,2.095-10.754c0.659-8.153-0.159-16.139-3.052-23.848
				c-1.324-3.528-2.865-6.943-5.166-9.963c-0.361-0.473-0.674-1.022-1.653-1.293c0.298,0.533,0.435,0.778,0.572,1.023
				c2.201,3.951,4.222,7.978,5.421,12.37c0.713,2.613,1.496,5.212,1.779,7.916c0.619,5.897,0.456,11.783-0.57,17.618
				c-1.438,8.182-4.483,15.688-9.689,22.247c-4.775,6.016-10.475,10.851-17.518,14.049c-3.642,1.654-7.33,3.149-11.203,4.171
				c-0.465,0.123-1.022,0.129-1.405,0.562c0.366,0.317,0.7,0.182,1.016,0.141c5.075-0.659,9.955-1.982,14.565-4.243
				c4.222-2.072,7.96-4.818,11.367-8.04c0.874-0.827,1.055-0.793,1.392,0.339c1.136,3.821,3.022,7.277,5.123,10.626
				c3.268,5.208,6.951,10.105,11.108,14.639c2.642,2.881,5.478,5.55,8.662,7.832c2.914,2.089,6.008,3.839,9.444,4.916
				c4.112,1.29,8.276,1.654,12.499,0.56c5.264-1.364,9.032-4.683,11.93-9.138c1.35-2.075,2.518-4.256,3.65-6.452
				c2.586-5.017,5.774-9.607,9.555-13.798c1.879-2.083,3.743-4.182,5.423-6.434c1.74-2.333,3.296-4.768,4.231-7.557
				C314.851,170.034,312.788,163.188,306.777,158.542z M310.632,175.806c-0.703,2.452-1.945,4.634-3.41,6.7
				c-1.57,2.215-3.324,4.283-5.157,6.277c-4.499,4.897-8.269,10.289-11.273,16.223c-1.116,2.204-2.32,4.363-3.756,6.384
				c-2.725,3.837-6.288,6.43-10.955,7.368c-1.163,0.234-2.344,0.383-3.536,0.391c-3.471-0.092-6.756-0.942-9.896-2.4
				c-3.437-1.595-6.501-3.75-9.314-6.261c-6.78-6.05-12.066-13.277-16.436-21.19c-1.756-3.18-2.728-6.672-3.538-10.201
				c-0.192-0.835-0.064-1.527,0.523-2.233c2.597-3.121,4.736-6.542,6.388-10.254c0.346-0.777,0.872-1.329,1.568-1.783
				c3.611-2.351,7.58-3.936,11.595-5.413c5.944-2.186,12.053-3.718,18.344-4.513c5.01-0.633,10.042-0.914,15.078-0.588
				c4.95,0.32,9.791,1.245,14.337,3.363c2.084,0.971,4.015,2.172,5.664,3.782C310.977,165.482,312.216,170.279,310.632,175.806z"/>
			<path style="fill:#20395A;" d="M175.828,113.173c-5.477,5.821-4.664,14.943,1.781,19.672c3.306,2.426,7.012,3.179,11.059,2.6
				c6.636-0.949,11.829-6.828,11.834-13.486c0.002-2.28-0.545-4.418-1.685-6.396C194.084,107.355,182.439,106.145,175.828,113.173z
				 M193.533,131.141c-4.407,3.198-10.467,3.128-14.773-0.123c-5.234-3.953-5.919-11.334-1.506-16.229
				c4.304-4.775,11.901-5.418,16.915-1.402c2.764,2.214,4.122,5.14,4.24,8.693C198.211,125.854,196.611,128.908,193.533,131.141z"/>
		</g>
	</g>
</g>
</svg>
